<?xml version="1.0" standalone="yes"?>

<svg version="1.1" viewBox="0.0 0.0 728.0393700787401 205.5511811023622" fill="none" stroke="none" stroke-linecap="square" stroke-miterlimit="10" xmlns="http://www.w3.org/2000/svg" xmlns:xlink="http://www.w3.org/1999/xlink"><clipPath id="p.0"><path d="m0 0l728.03937 0l0 205.55118l-728.03937 0l0 -205.55118z" clip-rule="nonzero"></path></clipPath><g clip-path="url(#p.0)"><path fill="#000000" fill-opacity="0.0" d="m0 0l728.03937 0l0 205.55118l-728.03937 0z" fill-rule="nonzero"></path><path fill="#9fc5e8" d="m35.29659 73.821526l26.110237 0l0 26.11023l-26.110237 0z" fill-rule="nonzero"></path><path stroke="#000000" stroke-width="3.0" stroke-linejoin="round" stroke-linecap="butt" d="m35.29659 73.821526l26.110237 0l0 26.11023l-26.110237 0z" fill-rule="nonzero"></path><path fill="#9fc5e8" d="m61.406826 73.821526l26.110233 0l0 26.11023l-26.110233 0z" fill-rule="nonzero"></path><path stroke="#000000" stroke-width="3.0" stroke-linejoin="round" stroke-linecap="butt" d="m61.406826 73.821526l26.110233 0l0 26.11023l-26.110233 0z" fill-rule="nonzero"></path><path fill="#9fc5e8" d="m87.51706 73.821526l26.110237 0l0 26.11023l-26.110237 0z" fill-rule="nonzero"></path><path stroke="#000000" stroke-width="3.0" stroke-linejoin="round" stroke-linecap="butt" d="m87.51706 73.821526l26.110237 0l0 26.11023l-26.110237 0z" fill-rule="nonzero"></path><path fill="#9fc5e8" d="m113.6273 73.821526l26.110237 0l0 26.11023l-26.110237 0z" fill-rule="nonzero"></path><path stroke="#000000" stroke-width="3.0" stroke-linejoin="round" stroke-linecap="butt" d="m113.6273 73.821526l26.110237 0l0 26.11023l-26.110237 0z" fill-rule="nonzero"></path><path fill="#9fc5e8" d="m139.73753 73.821526l26.11023 0l0 26.11023l-26.11023 0z" fill-rule="nonzero"></path><path stroke="#000000" stroke-width="3.0" stroke-linejoin="round" stroke-linecap="butt" d="m139.73753 73.821526l26.11023 0l0 26.11023l-26.11023 0z" fill-rule="nonzero"></path><path fill="#9fc5e8" d="m165.84776 73.821526l26.110245 0l0 26.11023l-26.110245 0z" fill-rule="nonzero"></path><path stroke="#000000" stroke-width="3.0" stroke-linejoin="round" stroke-linecap="butt" d="m165.84776 73.821526l26.110245 0l0 26.11023l-26.110245 0z" fill-rule="nonzero"></path><path fill="#9fc5e8" d="m191.95801 73.821526l26.11023 0l0 26.11023l-26.11023 0z" fill-rule="nonzero"></path><path stroke="#000000" stroke-width="3.0" stroke-linejoin="round" stroke-linecap="butt" d="m191.95801 73.821526l26.11023 0l0 26.11023l-26.11023 0z" fill-rule="nonzero"></path><path fill="#ffe599" d="m218.06824 73.821526l26.110245 0l0 26.11023l-26.110245 0z" fill-rule="nonzero"></path><path stroke="#000000" stroke-width="3.0" stroke-linejoin="round" stroke-linecap="butt" d="m218.06824 73.821526l26.110245 0l0 26.11023l-26.110245 0z" fill-rule="nonzero"></path><path fill="#ffe599" d="m244.17848 73.821526l26.110245 0l0 26.11023l-26.110245 0z" fill-rule="nonzero"></path><path stroke="#000000" stroke-width="3.0" stroke-linejoin="round" stroke-linecap="butt" d="m244.17848 73.821526l26.110245 0l0 26.11023l-26.110245 0z" fill-rule="nonzero"></path><path fill="#ffe599" d="m270.28873 73.821526l26.11023 0l0 26.11023l-26.11023 0z" fill-rule="nonzero"></path><path stroke="#000000" stroke-width="3.0" stroke-linejoin="round" stroke-linecap="butt" d="m270.28873 73.821526l26.11023 0l0 26.11023l-26.11023 0z" fill-rule="nonzero"></path><path fill="#ffe599" d="m296.39896 73.821526l26.11023 0l0 26.11023l-26.11023 0z" fill-rule="nonzero"></path><path stroke="#000000" stroke-width="3.0" stroke-linejoin="round" stroke-linecap="butt" d="m296.39896 73.821526l26.11023 0l0 26.11023l-26.11023 0z" fill-rule="nonzero"></path><path fill="#ffe599" d="m322.5092 73.821526l26.11023 0l0 26.11023l-26.11023 0z" fill-rule="nonzero"></path><path stroke="#000000" stroke-width="3.0" stroke-linejoin="round" stroke-linecap="butt" d="m322.5092 73.821526l26.11023 0l0 26.11023l-26.11023 0z" fill-rule="nonzero"></path><path fill="#ffe599" d="m348.61942 73.821526l26.11023 0l0 26.11023l-26.11023 0z" fill-rule="nonzero"></path><path stroke="#000000" stroke-width="3.0" stroke-linejoin="round" stroke-linecap="butt" d="m348.61942 73.821526l26.11023 0l0 26.11023l-26.11023 0z" fill-rule="nonzero"></path><path fill="#ffe599" d="m374.72964 73.821526l26.11026 0l0 26.11023l-26.11026 0z" fill-rule="nonzero"></path><path stroke="#000000" stroke-width="3.0" stroke-linejoin="round" stroke-linecap="butt" d="m374.72964 73.821526l26.11026 0l0 26.11023l-26.11026 0z" fill-rule="nonzero"></path><path fill="#ffe599" d="m400.8399 73.821526l26.11023 0l0 26.11023l-26.11023 0z" fill-rule="nonzero"></path><path stroke="#000000" stroke-width="3.0" stroke-linejoin="round" stroke-linecap="butt" d="m400.8399 73.821526l26.11023 0l0 26.11023l-26.11023 0z" fill-rule="nonzero"></path><path fill="#6aa84f" d="m426.95013 73.821526l26.11023 0l0 26.11023l-26.11023 0z" fill-rule="nonzero"></path><path stroke="#000000" stroke-width="3.0" stroke-linejoin="round" stroke-linecap="butt" d="m426.95013 73.821526l26.11023 0l0 26.11023l-26.11023 0z" fill-rule="nonzero"></path><path fill="#6aa84f" d="m453.06036 73.821526l26.11023 0l0 26.11023l-26.11023 0z" fill-rule="nonzero"></path><path stroke="#000000" stroke-width="3.0" stroke-linejoin="round" stroke-linecap="butt" d="m453.06036 73.821526l26.11023 0l0 26.11023l-26.11023 0z" fill-rule="nonzero"></path><path fill="#6aa84f" d="m479.1706 73.821526l26.11026 0l0 26.11023l-26.11026 0z" fill-rule="nonzero"></path><path stroke="#000000" stroke-width="3.0" stroke-linejoin="round" stroke-linecap="butt" d="m479.1706 73.821526l26.11026 0l0 26.11023l-26.11026 0z" fill-rule="nonzero"></path><path fill="#6aa84f" d="m505.28085 73.821526l26.110199 0l0 26.11023l-26.110199 0z" fill-rule="nonzero"></path><path stroke="#000000" stroke-width="3.0" stroke-linejoin="round" stroke-linecap="butt" d="m505.28085 73.821526l26.110199 0l0 26.11023l-26.110199 0z" fill-rule="nonzero"></path><path fill="#d5a6bd" d="m531.39105 73.821526l26.11029 0l0 26.11023l-26.11029 0z" fill-rule="nonzero"></path><path stroke="#000000" stroke-width="3.0" stroke-linejoin="round" stroke-linecap="butt" d="m531.39105 73.821526l26.11029 0l0 26.11023l-26.11029 0z" fill-rule="nonzero"></path><path fill="#d5a6bd" d="m557.50134 73.821526l26.11023 0l0 26.11023l-26.11023 0z" fill-rule="nonzero"></path><path stroke="#000000" stroke-width="3.0" stroke-linejoin="round" stroke-linecap="butt" d="m557.50134 73.821526l26.11023 0l0 26.11023l-26.11023 0z" fill-rule="nonzero"></path><path fill="#d5a6bd" d="m583.6116 73.821526l26.11023 0l0 26.11023l-26.11023 0z" fill-rule="nonzero"></path><path stroke="#000000" stroke-width="3.0" stroke-linejoin="round" stroke-linecap="butt" d="m583.6116 73.821526l26.11023 0l0 26.11023l-26.11023 0z" fill-rule="nonzero"></path><path fill="#d5a6bd" d="m609.7218 73.821526l26.11023 0l0 26.11023l-26.11023 0z" fill-rule="nonzero"></path><path stroke="#000000" stroke-width="3.0" stroke-linejoin="round" stroke-linecap="butt" d="m609.7218 73.821526l26.11023 0l0 26.11023l-26.11023 0z" fill-rule="nonzero"></path><path fill="#d5a6bd" d="m635.83203 73.821526l26.11023 0l0 26.11023l-26.11023 0z" fill-rule="nonzero"></path><path stroke="#000000" stroke-width="3.0" stroke-linejoin="round" stroke-linecap="butt" d="m635.83203 73.821526l26.11023 0l0 26.11023l-26.11023 0z" fill-rule="nonzero"></path><path fill="#000000" fill-opacity="0.0" d="m78.88714 99.931755l106.015755 0l0 61.19686l-106.015755 0z" fill-rule="nonzero"></path><path fill="#f3f3f3" d="m94.80901 132.1905q-1.59375 0 -2.71875 -0.484375q-1.125 -0.484375 -1.796875 -1.40625q-0.671875 -0.9375 -0.984375 -2.171875q-0.296875 -1.25 -0.296875 -2.90625l0 -7.625q0 -1.640625 0.296875 -2.875q0.3125 -1.234375 0.984375 -2.140625q0.671875 -0.90625 1.796875 -1.359375q1.125 -0.46875 2.71875 -0.46875q3.0625 0 4.421875 1.765625q1.359375 1.75 1.359375 5.078125l0 7.625q0 1.625 -0.3125 2.875q-0.3125 1.25 -0.984375 2.1875q-0.65625 0.921875 -1.796875 1.421875q-1.125 0.484375 -2.6875 0.484375zm-2.203125 -3.421875q0.609375 0.953125 2.1875 0.953125q1.59375 0 2.1875 -0.953125q0.609375 -0.953125 0.609375 -2.796875l0 -9.125q0 -1.828125 -0.59375 -2.71875q-0.59375 -0.90625 -2.1875 -0.90625q-1.59375 0 -2.203125 0.90625q-0.59375 0.890625 -0.59375 2.71875l0 9.125q0 1.84375 0.59375 2.796875zm10.484375 3.203125l0 -15.0l3.0 0l0 2.0q0.453125 -0.890625 1.328125 -1.546875q0.875 -0.671875 1.9375 -0.671875q0.03125 0 0.484375 0.046875l0 3.328125q-0.828125 -0.328125 -1.671875 -0.328125q-0.9375 0 -1.515625 0.5625q-0.5625 0.5625 -0.5625 1.484375l0 10.125l-3.0 0zm8.246094 -17.25l0 -3.0l3.0 0l0 3.0l-3.0 0zm0 17.25l0 -15.0l3.0 0l0 15.0l-3.0 0zm8.0 -9.75q0 3.1875 1.875 3.1875q1.875 0 1.875 -3.1875q0 -0.640625 -0.09375 -1.1875q-0.078125 -0.546875 -0.28125 -1.0625q-0.1875 -0.53125 -0.578125 -0.828125q-0.390625 -0.296875 -0.921875 -0.296875q-0.5625 0 -0.953125 0.296875q-0.375 0.296875 -0.578125 0.828125q-0.1875 0.515625 -0.265625 1.0625q-0.078125 0.546875 -0.078125 1.1875zm2.625 12.03125q0.3125 0 0.5625 -0.015625q0.25 -0.015625 0.578125 -0.046875q0.328125 -0.03125 0.5625 -0.109375q0.25 -0.078125 0.46875 -0.203125q0.21875 -0.109375 0.328125 -0.3125q0.125 -0.1875 0.125 -0.4375q0 -1.25 -2.40625 -1.53125l-2.46875 -0.296875q-0.46875 0.328125 -0.796875 0.953125q-0.3125 0.625 -0.3125 1.296875q0 0.1875 0.125 0.328125q0.140625 0.140625 0.390625 0.203125q0.25 0.078125 0.515625 0.125q0.265625 0.046875 0.625 0.046875q0.359375 0.015625 0.609375 0.015625q0.265625 0 0.609375 -0.015625q0.34375 0 0.484375 0zm0 2.203125q-0.5625 0 -0.921875 0q-0.34375 0 -0.953125 -0.03125q-0.609375 -0.015625 -1.03125 -0.09375q-0.40625 -0.0625 -0.9375 -0.15625q-0.515625 -0.09375 -0.875 -0.265625q-0.34375 -0.15625 -0.65625 -0.390625q-0.3125 -0.21875 -0.46875 -0.546875q-0.15625 -0.3125 -0.15625 -0.71875q0 -1.171875 0.625 -2.0q0.625 -0.828125 1.625 -1.328125q-0.609375 -0.15625 -1.0625 -0.484375q-0.4375 -0.34375 -0.4375 -0.828125q0 -0.203125 0.046875 -0.421875q0.046875 -0.21875 0.09375 -0.390625q0.0625 -0.1875 0.1875 -0.421875q0.140625 -0.234375 0.203125 -0.375q0.078125 -0.140625 0.25 -0.375q0.1875 -0.234375 0.25 -0.328125q0.0625 -0.09375 0.25 -0.3125q0.1875 -0.234375 0.21875 -0.265625q-1.5 -1.78125 -1.5 -4.5q0 -1.5625 0.484375 -2.78125q0.5 -1.21875 1.53125 -1.953125q1.03125 -0.734375 2.484375 -0.734375q0.828125 0 1.4375 0.234375q0.625 0.234375 1.015625 0.59375q0.40625 0.359375 0.78125 0.953125q0.890625 -1.65625 2.53125 -1.765625q0.03125 0 0.0625 0q0.03125 0 0.078125 0q0.0625 0 0.09375 0l0 2.453125q-0.0625 0 -0.1875 0q-0.515625 0 -0.78125 0.015625q-0.25 0 -0.5625 0.09375q-0.3125 0.09375 -0.5 0.28125q0.203125 0.453125 0.359375 1.21875q0.171875 0.75 0.171875 1.390625q0 1.5625 -0.484375 2.78125q-0.46875 1.203125 -1.515625 1.9375q-1.03125 0.71875 -2.5 0.71875l-1.515625 -0.171875q-0.03125 0.046875 -0.125 0.203125q-0.09375 0.140625 -0.140625 0.234375q-0.046875 0.09375 -0.09375 0.25q-0.046875 0.140625 -0.046875 0.265625q0 0.3125 0.28125 0.53125q0.296875 0.203125 0.8125 0.296875q0.515625 0.09375 0.984375 0.140625q0.484375 0.046875 1.0625 0.078125q0.59375 0.03125 0.8125 0.0625q0.671875 0.09375 1.1875 0.21875q0.53125 0.125 1.0625 0.359375q0.546875 0.234375 0.890625 0.5625q0.359375 0.328125 0.59375 0.84375q0.234375 0.515625 0.234375 1.1875q0 0.828125 -0.296875 1.46875q-0.28125 0.640625 -0.765625 1.0625q-0.484375 0.421875 -1.171875 0.6875q-0.671875 0.28125 -1.421875 0.390625q-0.75 0.125 -1.59375 0.125zm6.2148514 -21.734375l0 -3.0l3.0 0l0 3.0l-3.0 0zm0 17.25l0 -15.0l3.0 0l0 15.0l-3.0 0zm5.875 0l0 -15.0l3.0 0l0 1.609375q0.671875 -0.609375 1.09375 -0.921875q0.421875 -0.328125 1.15625 -0.609375q0.75 -0.296875 1.59375 -0.296875q0.953125 0 1.546875 0.703125q0.609375 0.703125 0.609375 1.734375l0 12.78125l-3.0 0l0 -11.25q0 -0.78125 -0.234375 -1.140625q-0.21875 -0.359375 -0.890625 -0.359375q-0.390625 0 -0.78125 0.15625q-0.375 0.15625 -0.5625 0.296875q-0.1875 0.125 -0.53125 0.421875l0 11.875l-3.0 0zm15.734375 -2.25q0.3125 0 0.609375 -0.1875q0.3125 -0.1875 0.453125 -0.359375q0.15625 -0.1875 0.375 -0.46875q0.046875 -0.0625 0.0625 -0.09375l0 -4.140625q-0.1875 0.125 -0.625 0.40625q-0.421875 0.265625 -0.6875 0.4375q-0.25 0.15625 -0.625 0.46875q-0.359375 0.296875 -0.5625 0.578125q-0.1875 0.265625 -0.34375 0.671875q-0.15625 0.390625 -0.15625 0.828125q0 1.859375 1.5 1.859375zm-1.5 2.46875q-1.25 0 -2.125 -1.078125q-0.875 -1.09375 -0.875 -2.453125q0 -1.09375 0.359375 -1.984375q0.375 -0.890625 0.78125 -1.421875q0.421875 -0.53125 1.375 -1.09375q0.96875 -0.578125 1.453125 -0.78125q0.5 -0.21875 1.71875 -0.703125q0.203125 -0.078125 0.3125 -0.125l0 -1.078125q0 -1.140625 -0.3125 -1.765625q-0.3125 -0.625 -1.1875 -0.625q-0.765625 0 -1.109375 0.53125q-0.328125 0.53125 -0.375 1.46875q-0.015625 0.125 -0.015625 0.390625l-3.0 0q0.03125 -2.15625 1.203125 -3.4375q1.1875 -1.28125 3.296875 -1.28125q2.09375 0 3.296875 1.296875q1.203125 1.296875 1.203125 3.421875l0 6.75q0 2.34375 0.390625 3.75l-2.984375 0l-0.40625 -2.25q-0.234375 0.46875 -0.390625 0.734375q-0.140625 0.25 -0.421875 0.640625q-0.28125 0.375 -0.5625 0.578125q-0.28125 0.203125 -0.703125 0.359375q-0.421875 0.15625 -0.921875 0.15625zm8.597656 -0.21875l0 -21.0l3.0 0l0 21.0l-3.0 0z" fill-rule="nonzero"></path><path fill="#f3f3f3" d="m90.04339 160.97176l0 -12.75l-1.5 0l0 -2.25l1.5 0l0 -0.578125q0 -0.953125 0.0625 -1.609375q0.078125 -0.65625 0.296875 -1.265625q0.21875 -0.625 0.578125 -0.984375q0.375 -0.375 0.984375 -0.59375q0.625 -0.21875 1.484375 -0.21875q0.71875 0 1.84375 0.140625l0 2.21875q-0.109375 0 -0.484375 -0.046875q-0.359375 -0.0625 -0.515625 -0.0625q-0.75 0 -1.0 0.484375q-0.25 0.46875 -0.25 1.390625l0 1.125l2.25 0l0 2.25l-2.25 0l0 12.75l-3.0 0zm10.8828125 0.21875q-1.09375 0 -1.890625 -0.375q-0.796875 -0.390625 -1.28125 -0.984375q-0.46875 -0.609375 -0.765625 -1.546875q-0.296875 -0.953125 -0.40625 -1.890625q-0.109375 -0.9375 -0.125 -2.203125q-0.046875 -0.984375 0 -1.96875q0.03125 -1.171875 0.15625 -2.078125q0.125 -0.90625 0.421875 -1.75q0.3125 -0.859375 0.796875 -1.40625q0.484375 -0.5625 1.265625 -0.890625q0.796875 -0.34375 1.859375 -0.34375q0.953125 0 1.6875 0.265625q0.734375 0.25 1.21875 0.765625q0.484375 0.5 0.796875 1.125q0.328125 0.609375 0.484375 1.5q0.171875 0.890625 0.234375 1.75q0.078125 0.84375 0.078125 1.953125l0 0.359375l-6.0 0l0 0.75q0 0.15625 0 0.484375q-0.03125 0.421875 -0.015625 0.890625q0.015625 0.46875 0.03125 0.921875q0.03125 0.4375 0.140625 0.84375q0.109375 0.390625 0.25 0.703125q0.15625 0.296875 0.4375 0.484375q0.28125 0.171875 0.65625 0.171875q0.46875 0 0.765625 -0.171875q0.3125 -0.1875 0.453125 -0.546875q0.140625 -0.375 0.203125 -0.734375q0.0625 -0.359375 0.078125 -0.921875l0 -0.625l2.96875 0l0 0.59375q-0.109375 2.40625 -1.1875 3.640625q-1.078125 1.234375 -3.3125 1.234375zm-1.46875 -9.21875l2.96875 0l0 -0.90625q-0.015625 -0.59375 -0.078125 -1.03125q-0.046875 -0.453125 -0.203125 -0.890625q-0.140625 -0.453125 -0.453125 -0.6875q-0.296875 -0.234375 -0.734375 -0.234375q-0.46875 0 -0.78125 0.25q-0.296875 0.234375 -0.453125 0.703125q-0.140625 0.46875 -0.203125 0.921875q-0.0625 0.4375 -0.0625 1.046875l0 0.828125zm12.277344 6.75q0.3125 0 0.609375 -0.1875q0.3125 -0.1875 0.453125 -0.359375q0.15625 -0.1875 0.375 -0.46875q0.046875 -0.0625 0.0625 -0.09375l0 -4.140625q-0.1875 0.125 -0.625 0.40625q-0.421875 0.265625 -0.6875 0.4375q-0.25 0.15625 -0.625 0.46875q-0.359375 0.296875 -0.5625 0.578125q-0.1875 0.265625 -0.34375 0.671875q-0.15625 0.390625 -0.15625 0.828125q0 1.859375 1.5 1.859375zm-1.5 2.46875q-1.25 0 -2.125 -1.078125q-0.875 -1.09375 -0.875 -2.453125q0 -1.09375 0.359375 -1.984375q0.375 -0.890625 0.78125 -1.421875q0.421875 -0.53125 1.375 -1.09375q0.96875 -0.578125 1.453125 -0.78125q0.5 -0.21875 1.71875 -0.703125q0.203125 -0.078125 0.3125 -0.125l0 -1.078125q0 -1.140625 -0.3125 -1.765625q-0.3125 -0.625 -1.1875 -0.625q-0.765625 0 -1.109375 0.53125q-0.328125 0.53125 -0.375 1.46875q-0.015625 0.125 -0.015625 0.390625l-3.0 0q0.03125 -2.15625 1.203125 -3.4375q1.1875 -1.28125 3.296875 -1.28125q2.09375 0 3.296875 1.296875q1.203125 1.296875 1.203125 3.421875l0 6.75q0 2.34375 0.390625 3.75l-2.984375 0l-0.40625 -2.25q-0.234375 0.46875 -0.390625 0.734375q-0.140625 0.25 -0.421875 0.640625q-0.28125 0.375 -0.5625 0.578125q-0.28125 0.203125 -0.703125 0.359375q-0.421875 0.15625 -0.921875 0.15625zm12.738281 0q-1.765625 0 -2.578125 -0.90625q-0.796875 -0.90625 -0.8125 -2.734375l0 -9.328125l-1.5 0l0 -2.25l1.5 0l0 -5.25l3.0 0l0 5.25l2.25 0l0 2.25l-2.25 0l0 8.75q0 0.90625 0.234375 1.328125q0.25 0.421875 1.0 0.421875q0.328125 0 1.015625 -0.125l0 2.453125q-1.125 0.140625 -1.859375 0.140625zm6.1875076 0q-0.984375 0 -1.5781326 -0.703125q-0.59375 -0.703125 -0.59375 -1.734375l0 -12.78125l3.0000076 0l0 11.875q0 0.46875 0.28125 0.765625q0.28125 0.28125 0.75 0.28125q0.234375 0 0.46875 -0.046875q0.234375 -0.0625 0.46875 -0.203125q0.234375 -0.15625 0.359375 -0.234375q0.125 -0.09375 0.359375 -0.296875q0.25 -0.21875 0.3125 -0.265625l0 -11.875l3.0 0l0 15.0l-3.0 0l0 -1.625q-0.453125 0.390625 -0.65625 0.578125q-0.203125 0.171875 -0.625 0.46875q-0.421875 0.296875 -0.75 0.4375q-0.3125 0.125 -0.796875 0.234375q-0.484375 0.125 -1.0 0.125zm9.425781 -0.21875l0 -15.0l3.0 0l0 2.0q0.453125 -0.890625 1.328125 -1.546875q0.875 -0.671875 1.9375 -0.671875q0.03125 0 0.484375 0.046875l0 3.328125q-0.828125 -0.328125 -1.671875 -0.328125q-0.9375 0 -1.515625 0.5625q-0.5625 0.5625 -0.5625 1.484375l0 10.125l-3.0 0zm12.355469 0.21875q-1.09375 0 -1.890625 -0.375q-0.796875 -0.390625 -1.28125 -0.984375q-0.46875 -0.609375 -0.765625 -1.546875q-0.296875 -0.953125 -0.40625 -1.890625q-0.109375 -0.9375 -0.125 -2.203125q-0.046875 -0.984375 0 -1.96875q0.03125 -1.171875 0.15625 -2.078125q0.125 -0.90625 0.421875 -1.75q0.3125 -0.859375 0.796875 -1.40625q0.484375 -0.5625 1.265625 -0.890625q0.796875 -0.34375 1.859375 -0.34375q0.953125 0 1.6875 0.265625q0.734375 0.25 1.21875 0.765625q0.484375 0.5 0.796875 1.125q0.328125 0.609375 0.484375 1.5q0.171875 0.890625 0.234375 1.75q0.078125 0.84375 0.078125 1.953125l0 0.359375l-6.0 0l0 0.75q0 0.15625 0 0.484375q-0.03125 0.421875 -0.015625 0.890625q0.015625 0.46875 0.03125 0.921875q0.03125 0.4375 0.140625 0.84375q0.109375 0.390625 0.25 0.703125q0.15625 0.296875 0.4375 0.484375q0.28125 0.171875 0.65625 0.171875q0.46875 0 0.765625 -0.171875q0.3125 -0.1875 0.453125 -0.546875q0.140625 -0.375 0.203125 -0.734375q0.0625 -0.359375 0.078125 -0.921875l0 -0.625l2.96875 0l0 0.59375q-0.109375 2.40625 -1.1875 3.640625q-1.078125 1.234375 -3.3125 1.234375zm-1.46875 -9.21875l2.96875 0l0 -0.90625q-0.015625 -0.59375 -0.078125 -1.03125q-0.046875 -0.453125 -0.203125 -0.890625q-0.140625 -0.453125 -0.453125 -0.6875q-0.296875 -0.234375 -0.734375 -0.234375q-0.46875 0 -0.78125 0.25q-0.296875 0.234375 -0.453125 0.703125q-0.140625 0.46875 -0.203125 0.921875q-0.0625 0.4375 -0.0625 1.046875l0 0.828125zm12.105469 9.21875q-1.859375 0 -2.984375 -1.109375q-1.109375 -1.109375 -1.515625 -2.859375l2.25 -0.75q0.8125 2.25 2.25 2.25q0.71875 0 1.109375 -0.390625q0.390625 -0.390625 0.390625 -1.109375q0 -1.046875 -0.75 -1.734375l-3.0 -2.25q-0.5 -0.34375 -0.84375 -0.640625q-0.34375 -0.296875 -0.703125 -0.734375q-0.34375 -0.4375 -0.53125 -0.96875q-0.171875 -0.546875 -0.171875 -1.171875q0 -1.921875 1.21875 -2.9375q1.234375 -1.03125 3.28125 -1.03125q0.96875 0 1.75 0.3125q0.796875 0.3125 1.328125 0.875q0.53125 0.5625 0.875 1.25q0.34375 0.6875 0.546875 1.53125l-2.25 0.75q-0.171875 -0.453125 -0.34375 -0.765625q-0.15625 -0.328125 -0.4375 -0.703125q-0.265625 -0.375 -0.640625 -0.578125q-0.375 -0.203125 -0.828125 -0.203125q-0.71875 0 -1.109375 0.390625q-0.390625 0.390625 -0.390625 1.109375q0 0.703125 0.75 1.265625l3.0 2.25q0.5 0.390625 0.859375 0.765625q0.359375 0.375 0.6875 0.859375q0.34375 0.484375 0.515625 1.078125q0.1875 0.59375 0.1875 1.28125q0 1.921875 -1.234375 2.953125q-1.21875 1.015625 -3.265625 1.015625z" fill-rule="nonzero"></path><path fill="#000000" fill-opacity="0.0" d="m265.5328 99.931755l113.95276 0l0 61.19686l-113.95276 0z" fill-rule="nonzero"></path><path fill="#f3f3f3" d="m281.42343 132.1905q-1.328125 0 -2.34375 -0.375q-1.0 -0.390625 -1.640625 -1.046875q-0.640625 -0.65625 -1.046875 -1.640625q-0.40625 -1.0 -0.578125 -2.125q-0.15625 -1.125 -0.15625 -2.546875l0 -5.984375q0 -1.421875 0.15625 -2.546875q0.171875 -1.125 0.578125 -2.109375q0.40625 -1.0 1.046875 -1.65625q0.640625 -0.65625 1.640625 -1.03125q1.015625 -0.375 2.34375 -0.375q1.46875 0 2.53125 0.4375q1.0625 0.4375 1.703125 1.28125q0.640625 0.84375 0.953125 1.953125q0.328125 1.109375 0.390625 2.609375q0.015625 0.21875 0.015625 0.6875l-3.0 0l0 -0.671875q-0.015625 -0.625 -0.046875 -1.0625q-0.03125 -0.4375 -0.125 -0.90625q-0.09375 -0.46875 -0.28125 -0.78125q-0.1875 -0.3125 -0.46875 -0.5625q-0.265625 -0.265625 -0.6875 -0.390625q-0.421875 -0.125 -0.984375 -0.125q-0.71875 0 -1.25 0.234375q-0.515625 0.234375 -0.8125 0.609375q-0.296875 0.359375 -0.453125 0.984375q-0.15625 0.625 -0.203125 1.21875q-0.046875 0.578125 -0.046875 1.453125l0 7.5q0 0.75 0.0625 1.359375q0.0625 0.609375 0.25 1.21875q0.1875 0.59375 0.484375 1.015625q0.3125 0.40625 0.796875 0.65625q0.5 0.25 1.171875 0.25q0.671875 0 1.140625 -0.25q0.484375 -0.265625 0.765625 -0.65625q0.28125 -0.40625 0.4375 -1.03125q0.15625 -0.625 0.203125 -1.203125q0.046875 -0.59375 0.046875 -1.359375l0 -0.75l3.0 0l0 0.75q0 1.625 -0.296875 2.859375q-0.28125 1.234375 -0.921875 2.171875q-0.640625 0.9375 -1.734375 1.4375q-1.09375 0.5 -2.640625 0.5zm11.566406 -2.46875q0.3125 0 0.609375 -0.1875q0.3125 -0.1875 0.453125 -0.359375q0.15625 -0.1875 0.375 -0.46875q0.046875 -0.0625 0.0625 -0.09375l0 -4.140625q-0.1875 0.125 -0.625 0.40625q-0.421875 0.265625 -0.6875 0.4375q-0.25 0.15625 -0.625 0.46875q-0.359375 0.296875 -0.5625 0.578125q-0.1875 0.265625 -0.34375 0.671875q-0.15625 0.390625 -0.15625 0.828125q0 1.859375 1.5 1.859375zm-1.5 2.46875q-1.25 0 -2.125 -1.078125q-0.875 -1.09375 -0.875 -2.453125q0 -1.09375 0.359375 -1.984375q0.375 -0.890625 0.78125 -1.421875q0.421875 -0.53125 1.375 -1.09375q0.96875 -0.578125 1.453125 -0.78125q0.5 -0.21875 1.71875 -0.703125q0.203125 -0.078125 0.3125 -0.125l0 -1.078125q0 -1.140625 -0.3125 -1.765625q-0.3125 -0.625 -1.1875 -0.625q-0.765625 0 -1.109375 0.53125q-0.328125 0.53125 -0.375 1.46875q-0.015625 0.125 -0.015625 0.390625l-3.0 0q0.03125 -2.15625 1.203125 -3.4375q1.1875 -1.28125 3.296875 -1.28125q2.09375 0 3.296875 1.296875q1.203125 1.296875 1.203125 3.421875l0 6.75q0 2.34375 0.390625 3.75l-2.984375 0l-0.40625 -2.25q-0.234375 0.46875 -0.390625 0.734375q-0.140625 0.25 -0.421875 0.640625q-0.28125 0.375 -0.5625 0.578125q-0.28125 0.203125 -0.703125 0.359375q-0.421875 0.15625 -0.921875 0.15625zm8.582031 -0.21875l0 -15.0l3.0 0l0 2.0q0.453125 -0.890625 1.328125 -1.546875q0.875 -0.671875 1.9375 -0.671875q0.03125 0 0.484375 0.046875l0 3.328125q-0.828125 -0.328125 -1.671875 -0.328125q-0.9375 0 -1.515625 0.5625q-0.5625 0.5625 -0.5625 1.484375l0 10.125l-3.0 0zm12.277344 0.21875q-1.765625 0 -2.578125 -0.90625q-0.796875 -0.90625 -0.8125 -2.734375l0 -9.328125l-1.5 0l0 -2.25l1.5 0l0 -5.25l3.0 0l0 5.25l2.25 0l0 2.25l-2.25 0l0 8.75q0 0.90625 0.234375 1.328125q0.25 0.421875 1.0 0.421875q0.328125 0 1.015625 -0.125l0 2.453125q-1.125 0.140625 -1.859375 0.140625zm8.28125 0q-1.09375 0 -1.890625 -0.375q-0.796875 -0.390625 -1.28125 -0.984375q-0.46875 -0.609375 -0.765625 -1.546875q-0.296875 -0.953125 -0.40625 -1.890625q-0.109375 -0.9375 -0.125 -2.203125q-0.046875 -0.984375 0 -1.96875q0.03125 -1.171875 0.15625 -2.078125q0.125 -0.90625 0.421875 -1.75q0.3125 -0.859375 0.796875 -1.40625q0.484375 -0.5625 1.265625 -0.890625q0.796875 -0.34375 1.859375 -0.34375q0.953125 0 1.6875 0.265625q0.734375 0.25 1.21875 0.765625q0.484375 0.5 0.796875 1.125q0.328125 0.609375 0.484375 1.5q0.171875 0.890625 0.234375 1.75q0.078125 0.84375 0.078125 1.953125l0 0.359375l-6.0 0l0 0.75q0 0.15625 0 0.484375q-0.03125 0.421875 -0.015625 0.890625q0.015625 0.46875 0.03125 0.921875q0.03125 0.4375 0.140625 0.84375q0.109375 0.390625 0.25 0.703125q0.15625 0.296875 0.4375 0.484375q0.28125 0.171875 0.65625 0.171875q0.46875 0 0.765625 -0.171875q0.3125 -0.1875 0.453125 -0.546875q0.140625 -0.375 0.203125 -0.734375q0.0625 -0.359375 0.078125 -0.921875l0 -0.625l2.96875 0l0 0.59375q-0.109375 2.40625 -1.1875 3.640625q-1.078125 1.234375 -3.3125 1.234375zm-1.46875 -9.21875l2.96875 0l0 -0.90625q-0.015625 -0.59375 -0.078125 -1.03125q-0.046875 -0.453125 -0.203125 -0.890625q-0.140625 -0.453125 -0.453125 -0.6875q-0.296875 -0.234375 -0.734375 -0.234375q-0.46875 0 -0.78125 0.25q-0.296875 0.234375 -0.453125 0.703125q-0.140625 0.46875 -0.203125 0.921875q-0.0625 0.4375 -0.0625 1.046875l0 0.828125zm12.105469 9.21875q-1.859375 0 -2.984375 -1.109375q-1.109375 -1.109375 -1.515625 -2.859375l2.25 -0.75q0.8125 2.25 2.25 2.25q0.71875 0 1.109375 -0.390625q0.390625 -0.390625 0.390625 -1.109375q0 -1.046875 -0.75 -1.734375l-3.0 -2.25q-0.5 -0.34375 -0.84375 -0.640625q-0.34375 -0.296875 -0.703125 -0.734375q-0.34375 -0.4375 -0.53125 -0.96875q-0.171875 -0.546875 -0.171875 -1.171875q0 -1.921875 1.21875 -2.9375q1.234375 -1.03125 3.28125 -1.03125q0.96875 0 1.75 0.3125q0.796875 0.3125 1.328125 0.875q0.53125 0.5625 0.875 1.25q0.34375 0.6875 0.546875 1.53125l-2.25 0.75q-0.171875 -0.453125 -0.34375 -0.765625q-0.15625 -0.328125 -0.4375 -0.703125q-0.265625 -0.375 -0.640625 -0.578125q-0.375 -0.203125 -0.828125 -0.203125q-0.71875 0 -1.109375 0.390625q-0.390625 0.390625 -0.390625 1.109375q0 0.703125 0.75 1.265625l3.0 2.25q0.5 0.390625 0.859375 0.765625q0.359375 0.375 0.6875 0.859375q0.34375 0.484375 0.515625 1.078125q0.1875 0.59375 0.1875 1.28125q0 1.921875 -1.234375 2.953125q-1.21875 1.015625 -3.265625 1.015625zm6.453125 -17.46875l0 -3.0l3.0 0l0 3.0l-3.0 0zm0 17.25l0 -15.0l3.0 0l0 15.0l-3.0 0zm9.984375 -2.25q0.3125 0 0.609375 -0.1875q0.3125 -0.1875 0.453125 -0.359375q0.15625 -0.1875 0.375 -0.46875q0.046875 -0.0625 0.0625 -0.09375l0 -4.140625q-0.1875 0.125 -0.625 0.40625q-0.421875 0.265625 -0.6875 0.4375q-0.25 0.15625 -0.625 0.46875q-0.359375 0.296875 -0.5625 0.578125q-0.1875 0.265625 -0.34375 0.671875q-0.15625 0.390625 -0.15625 0.828125q0 1.859375 1.5 1.859375zm-1.5 2.46875q-1.25 0 -2.125 -1.078125q-0.875 -1.09375 -0.875 -2.453125q0 -1.09375 0.359375 -1.984375q0.375 -0.890625 0.78125 -1.421875q0.421875 -0.53125 1.375 -1.09375q0.96875 -0.578125 1.453125 -0.78125q0.5 -0.21875 1.71875 -0.703125q0.203125 -0.078125 0.3125 -0.125l0 -1.078125q0 -1.140625 -0.3125 -1.765625q-0.3125 -0.625 -1.1875 -0.625q-0.765625 0 -1.109375 0.53125q-0.328125 0.53125 -0.375 1.46875q-0.015625 0.125 -0.015625 0.390625l-3.0 0q0.03125 -2.15625 1.203125 -3.4375q1.1875 -1.28125 3.296875 -1.28125q2.09375 0 3.296875 1.296875q1.203125 1.296875 1.203125 3.421875l0 6.75q0 2.34375 0.390625 3.75l-2.984375 0l-0.40625 -2.25q-0.234375 0.46875 -0.390625 0.734375q-0.140625 0.25 -0.421875 0.640625q-0.28125 0.375 -0.5625 0.578125q-0.28125 0.203125 -0.703125 0.359375q-0.421875 0.15625 -0.921875 0.15625zm8.582031 -0.21875l0 -15.0l3.0 0l0 1.609375q0.671875 -0.609375 1.09375 -0.921875q0.421875 -0.328125 1.15625 -0.609375q0.75 -0.296875 1.59375 -0.296875q0.953125 0 1.546875 0.703125q0.609375 0.703125 0.609375 1.734375l0 12.78125l-3.0 0l0 -11.25q0 -0.78125 -0.234375 -1.140625q-0.21875 -0.359375 -0.890625 -0.359375q-0.390625 0 -0.78125 0.15625q-0.375 0.15625 -0.5625 0.296875q-0.1875 0.125 -0.53125 0.421875l0 11.875l-3.0 0z" fill-rule="nonzero"></path><path fill="#f3f3f3" d="m276.68906 160.97176l0 -12.75l-1.5 0l0 -2.25l1.5 0l0 -0.578125q0 -0.953125 0.0625 -1.609375q0.078125 -0.65625 0.296875 -1.265625q0.21875 -0.625 0.578125 -0.984375q0.375 -0.375 0.984375 -0.59375q0.625 -0.21875 1.484375 -0.21875q0.71875 0 1.84375 0.140625l0 2.21875q-0.109375 0 -0.484375 -0.046875q-0.359375 -0.0625 -0.515625 -0.0625q-0.75 0 -1.0 0.484375q-0.25 0.46875 -0.25 1.390625l0 1.125l2.25 0l0 2.25l-2.25 0l0 12.75l-3.0 0zm10.8828125 0.21875q-1.09375 0 -1.890625 -0.375q-0.796875 -0.390625 -1.28125 -0.984375q-0.46875 -0.609375 -0.765625 -1.546875q-0.296875 -0.953125 -0.40625 -1.890625q-0.109375 -0.9375 -0.125 -2.203125q-0.046875 -0.984375 0 -1.96875q0.03125 -1.171875 0.15625 -2.078125q0.125 -0.90625 0.421875 -1.75q0.3125 -0.859375 0.796875 -1.40625q0.484375 -0.5625 1.265625 -0.890625q0.796875 -0.34375 1.859375 -0.34375q0.953125 0 1.6875 0.265625q0.734375 0.25 1.21875 0.765625q0.484375 0.5 0.796875 1.125q0.328125 0.609375 0.484375 1.5q0.171875 0.890625 0.234375 1.75q0.078125 0.84375 0.078125 1.953125l0 0.359375l-6.0 0l0 0.75q0 0.15625 0 0.484375q-0.03125 0.421875 -0.015625 0.890625q0.015625 0.46875 0.03125 0.921875q0.03125 0.4375 0.140625 0.84375q0.109375 0.390625 0.25 0.703125q0.15625 0.296875 0.4375 0.484375q0.28125 0.171875 0.65625 0.171875q0.46875 0 0.765625 -0.171875q0.3125 -0.1875 0.453125 -0.546875q0.140625 -0.375 0.203125 -0.734375q0.0625 -0.359375 0.078125 -0.921875l0 -0.625l2.96875 0l0 0.59375q-0.109375 2.40625 -1.1875 3.640625q-1.078125 1.234375 -3.3125 1.234375zm-1.46875 -9.21875l2.96875 0l0 -0.90625q-0.015625 -0.59375 -0.078125 -1.03125q-0.046875 -0.453125 -0.203125 -0.890625q-0.140625 -0.453125 -0.453125 -0.6875q-0.296875 -0.234375 -0.734375 -0.234375q-0.46875 0 -0.78125 0.25q-0.296875 0.234375 -0.453125 0.703125q-0.140625 0.46875 -0.203125 0.921875q-0.0625 0.4375 -0.0625 1.046875l0 0.828125zm12.277344 6.75q0.3125 0 0.609375 -0.1875q0.3125 -0.1875 0.453125 -0.359375q0.15625 -0.1875 0.375 -0.46875q0.046875 -0.0625 0.0625 -0.09375l0 -4.140625q-0.1875 0.125 -0.625 0.40625q-0.421875 0.265625 -0.6875 0.4375q-0.25 0.15625 -0.625 0.46875q-0.359375 0.296875 -0.5625 0.578125q-0.1875 0.265625 -0.34375 0.671875q-0.15625 0.390625 -0.15625 0.828125q0 1.859375 1.5 1.859375zm-1.5 2.46875q-1.25 0 -2.125 -1.078125q-0.875 -1.09375 -0.875 -2.453125q0 -1.09375 0.359375 -1.984375q0.375 -0.890625 0.78125 -1.421875q0.421875 -0.53125 1.375 -1.09375q0.96875 -0.578125 1.453125 -0.78125q0.5 -0.21875 1.71875 -0.703125q0.203125 -0.078125 0.3125 -0.125l0 -1.078125q0 -1.140625 -0.3125 -1.765625q-0.3125 -0.625 -1.1875 -0.625q-0.765625 0 -1.109375 0.53125q-0.328125 0.53125 -0.375 1.46875q-0.015625 0.125 -0.015625 0.390625l-3.0 0q0.03125 -2.15625 1.203125 -3.4375q1.1875 -1.28125 3.296875 -1.28125q2.09375 0 3.296875 1.296875q1.203125 1.296875 1.203125 3.421875l0 6.75q0 2.34375 0.390625 3.75l-2.984375 0l-0.40625 -2.25q-0.234375 0.46875 -0.390625 0.734375q-0.140625 0.25 -0.421875 0.640625q-0.28125 0.375 -0.5625 0.578125q-0.28125 0.203125 -0.703125 0.359375q-0.421875 0.15625 -0.921875 0.15625zm12.738281 0q-1.765625 0 -2.578125 -0.90625q-0.796875 -0.90625 -0.8125 -2.734375l0 -9.328125l-1.5 0l0 -2.25l1.5 0l0 -5.25l3.0 0l0 5.25l2.25 0l0 2.25l-2.25 0l0 8.75q0 0.90625 0.234375 1.328125q0.25 0.421875 1.0 0.421875q0.328125 0 1.015625 -0.125l0 2.453125q-1.125 0.140625 -1.859375 0.140625zm6.1875 0q-0.984375 0 -1.578125 -0.703125q-0.59375 -0.703125 -0.59375 -1.734375l0 -12.78125l3.0 0l0 11.875q0 0.46875 0.28125 0.765625q0.28125 0.28125 0.75 0.28125q0.234375 0 0.46875 -0.046875q0.234375 -0.0625 0.46875 -0.203125q0.234375 -0.15625 0.359375 -0.234375q0.125 -0.09375 0.359375 -0.296875q0.25 -0.21875 0.3125 -0.265625l0 -11.875l3.0 0l0 15.0l-3.0 0l0 -1.625q-0.453125 0.390625 -0.65625 0.578125q-0.203125 0.171875 -0.625 0.46875q-0.421875 0.296875 -0.75 0.4375q-0.3125 0.125 -0.796875 0.234375q-0.484375 0.125 -1.0 0.125zm9.425781 -0.21875l0 -15.0l3.0 0l0 2.0q0.453125 -0.890625 1.328125 -1.546875q0.875 -0.671875 1.9375 -0.671875q0.03125 0 0.484375 0.046875l0 3.328125q-0.828125 -0.328125 -1.671875 -0.328125q-0.9375 0 -1.515625 0.5625q-0.5625 0.5625 -0.5625 1.484375l0 10.125l-3.0 0zm12.355469 0.21875q-1.09375 0 -1.890625 -0.375q-0.796875 -0.390625 -1.28125 -0.984375q-0.46875 -0.609375 -0.765625 -1.546875q-0.296875 -0.953125 -0.40625 -1.890625q-0.109375 -0.9375 -0.125 -2.203125q-0.046875 -0.984375 0 -1.96875q0.03125 -1.171875 0.15625 -2.078125q0.125 -0.90625 0.421875 -1.75q0.3125 -0.859375 0.796875 -1.40625q0.484375 -0.5625 1.265625 -0.890625q0.796875 -0.34375 1.859375 -0.34375q0.953125 0 1.6875 0.265625q0.734375 0.25 1.21875 0.765625q0.484375 0.5 0.796875 1.125q0.328125 0.609375 0.484375 1.5q0.171875 0.890625 0.234375 1.75q0.078125 0.84375 0.078125 1.953125l0 0.359375l-6.0 0l0 0.75q0 0.15625 0 0.484375q-0.03125 0.421875 -0.015625 0.890625q0.015625 0.46875 0.03125 0.921875q0.03125 0.4375 0.140625 0.84375q0.109375 0.390625 0.25 0.703125q0.15625 0.296875 0.4375 0.484375q0.28125 0.171875 0.65625 0.171875q0.46875 0 0.765625 -0.171875q0.3125 -0.1875 0.453125 -0.546875q0.140625 -0.375 0.203125 -0.734375q0.0625 -0.359375 0.078125 -0.921875l0 -0.625l2.96875 0l0 0.59375q-0.109375 2.40625 -1.1875 3.640625q-1.078125 1.234375 -3.3125 1.234375zm-1.46875 -9.21875l2.96875 0l0 -0.90625q-0.015625 -0.59375 -0.078125 -1.03125q-0.046875 -0.453125 -0.203125 -0.890625q-0.140625 -0.453125 -0.453125 -0.6875q-0.296875 -0.234375 -0.734375 -0.234375q-0.46875 0 -0.78125 0.25q-0.296875 0.234375 -0.453125 0.703125q-0.140625 0.46875 -0.203125 0.921875q-0.0625 0.4375 -0.0625 1.046875l0 0.828125zm12.105469 9.21875q-1.859375 0 -2.984375 -1.109375q-1.109375 -1.109375 -1.515625 -2.859375l2.25 -0.75q0.8125 2.25 2.25 2.25q0.71875 0 1.109375 -0.390625q0.390625 -0.390625 0.390625 -1.109375q0 -1.046875 -0.75 -1.734375l-3.0 -2.25q-0.5 -0.34375 -0.84375 -0.640625q-0.34375 -0.296875 -0.703125 -0.734375q-0.34375 -0.4375 -0.53125 -0.96875q-0.171875 -0.546875 -0.171875 -1.171875q0 -1.921875 1.21875 -2.9375q1.234375 -1.03125 3.28125 -1.03125q0.96875 0 1.75 0.3125q0.796875 0.3125 1.328125 0.875q0.53125 0.5625 0.875 1.25q0.34375 0.6875 0.546875 1.53125l-2.25 0.75q-0.171875 -0.453125 -0.34375 -0.765625q-0.15625 -0.328125 -0.4375 -0.703125q-0.265625 -0.375 -0.640625 -0.578125q-0.375 -0.203125 -0.828125 -0.203125q-0.71875 0 -1.109375 0.390625q-0.390625 0.390625 -0.390625 1.109375q0 0.703125 0.75 1.265625l3.0 2.25q0.5 0.390625 0.859375 0.765625q0.359375 0.375 0.6875 0.859375q0.34375 0.484375 0.515625 1.078125q0.1875 0.59375 0.1875 1.28125q0 1.921875 -1.234375 2.953125q-1.21875 1.015625 -3.265625 1.015625z" fill-rule="nonzero"></path><path fill="#000000" fill-opacity="0.0" d="m400.8399 99.931755l164.75592 0l0 61.19686l-164.75592 0z" fill-rule="nonzero"></path><path fill="#f3f3f3" d="m411.3399 131.97176l0 -21.0l2.25 0l5.25 12.984375l0 -12.984375l3.0 0l0 21.0l-2.125 0l-5.375 -13.96875l0 13.96875l-3.0 0zm17.609375 0.21875q-1.09375 0 -1.890625 -0.375q-0.796875 -0.390625 -1.28125 -0.984375q-0.46875 -0.609375 -0.765625 -1.546875q-0.296875 -0.953125 -0.40625 -1.890625q-0.109375 -0.9375 -0.125 -2.203125q-0.046875 -0.984375 0 -1.96875q0.03125 -1.171875 0.15625 -2.078125q0.125 -0.90625 0.421875 -1.75q0.3125 -0.859375 0.796875 -1.40625q0.484375 -0.5625 1.265625 -0.890625q0.796875 -0.34375 1.859375 -0.34375q0.953125 0 1.6875 0.265625q0.734375 0.25 1.21875 0.765625q0.484375 0.5 0.796875 1.125q0.328125 0.609375 0.484375 1.5q0.171875 0.890625 0.234375 1.75q0.078125 0.84375 0.078125 1.953125l0 0.359375l-6.0 0l0 0.75q0 0.15625 0 0.484375q-0.03125 0.421875 -0.015625 0.890625q0.015625 0.46875 0.03125 0.921875q0.03125 0.4375 0.140625 0.84375q0.109375 0.390625 0.25 0.703125q0.15625 0.296875 0.4375 0.484375q0.28125 0.171875 0.65625 0.171875q0.46875 0 0.765625 -0.171875q0.3125 -0.1875 0.453125 -0.546875q0.140625 -0.375 0.203125 -0.734375q0.0625 -0.359375 0.078125 -0.921875l0 -0.625l2.96875 0l0 0.59375q-0.109375 2.40625 -1.1875 3.640625q-1.078125 1.234375 -3.3125 1.234375zm-1.46875 -9.21875l2.96875 0l0 -0.90625q-0.015625 -0.59375 -0.078125 -1.03125q-0.046875 -0.453125 -0.203125 -0.890625q-0.140625 -0.453125 -0.453125 -0.6875q-0.296875 -0.234375 -0.734375 -0.234375q-0.46875 0 -0.78125 0.25q-0.296875 0.234375 -0.453125 0.703125q-0.140625 0.46875 -0.203125 0.921875q-0.0625 0.4375 -0.0625 1.046875l0 0.828125zm10.308594 9.21875q-0.984375 0 -1.578125 -0.703125q-0.59375 -0.703125 -0.59375 -1.734375l0 -12.78125l3.0 0l0 11.875q0 0.46875 0.28125 0.765625q0.28125 0.28125 0.75 0.28125q0.234375 0 0.46875 -0.046875q0.234375 -0.0625 0.46875 -0.203125q0.234375 -0.15625 0.359375 -0.234375q0.125 -0.09375 0.359375 -0.296875q0.25 -0.21875 0.3125 -0.265625l0 -11.875l3.0 0l0 15.0l-3.0 0l0 -1.625q-0.453125 0.390625 -0.65625 0.578125q-0.203125 0.171875 -0.625 0.46875q-0.421875 0.296875 -0.75 0.4375q-0.3125 0.125 -0.796875 0.234375q-0.484375 0.125 -1.0 0.125zm9.425781 -0.21875l0 -15.0l3.0 0l0 2.0q0.453125 -0.890625 1.328125 -1.546875q0.875 -0.671875 1.9375 -0.671875q0.03125 0 0.484375 0.046875l0 3.328125q-0.828125 -0.328125 -1.671875 -0.328125q-0.9375 0 -1.515625 0.5625q-0.5625 0.5625 -0.5625 1.484375l0 10.125l-3.0 0zm12.230469 -2.25q0.3125 0 0.609375 -0.1875q0.3125 -0.1875 0.453125 -0.359375q0.15625 -0.1875 0.375 -0.46875q0.046875 -0.0625 0.0625 -0.09375l0 -4.140625q-0.1875 0.125 -0.625 0.40625q-0.421875 0.265625 -0.6875 0.4375q-0.25 0.15625 -0.625 0.46875q-0.359375 0.296875 -0.5625 0.578125q-0.1875 0.265625 -0.34375 0.671875q-0.15625 0.390625 -0.15625 0.828125q0 1.859375 1.5 1.859375zm-1.5 2.46875q-1.25 0 -2.125 -1.078125q-0.875 -1.09375 -0.875 -2.453125q0 -1.09375 0.359375 -1.984375q0.375 -0.890625 0.78125 -1.421875q0.421875 -0.53125 1.375 -1.09375q0.96875 -0.578125 1.453125 -0.78125q0.5 -0.21875 1.71875 -0.703125q0.203125 -0.078125 0.3125 -0.125l0 -1.078125q0 -1.140625 -0.3125 -1.765625q-0.3125 -0.625 -1.1875 -0.625q-0.765625 0 -1.109375 0.53125q-0.328125 0.53125 -0.375 1.46875q-0.015625 0.125 -0.015625 0.390625l-3.0 0q0.03125 -2.15625 1.203125 -3.4375q1.1875 -1.28125 3.296875 -1.28125q2.09375 0 3.296875 1.296875q1.203125 1.296875 1.203125 3.421875l0 6.75q0 2.34375 0.390625 3.75l-2.984375 0l-0.40625 -2.25q-0.234375 0.46875 -0.390625 0.734375q-0.140625 0.25 -0.421875 0.640625q-0.28125 0.375 -0.5625 0.578125q-0.28125 0.203125 -0.703125 0.359375q-0.421875 0.15625 -0.921875 0.15625zm8.597656 -0.21875l0 -21.0l3.0 0l0 21.0l-3.0 0zm10.667969 0l0 -21.0l2.25 0l5.25 12.984375l0 -12.984375l3.0 0l0 21.0l-2.125 0l-5.375 -13.96875l0 13.96875l-3.0 0zm17.609375 0.21875q-1.09375 0 -1.890625 -0.375q-0.796875 -0.390625 -1.28125 -0.984375q-0.46875 -0.609375 -0.765625 -1.546875q-0.296875 -0.953125 -0.40625 -1.890625q-0.109375 -0.9375 -0.125 -2.203125q-0.046875 -0.984375 0 -1.96875q0.03125 -1.171875 0.15625 -2.078125q0.125 -0.90625 0.421875 -1.75q0.3125 -0.859375 0.796875 -1.40625q0.484375 -0.5625 1.265625 -0.890625q0.796875 -0.34375 1.859375 -0.34375q0.953125 0 1.6875 0.265625q0.734375 0.25 1.21875 0.765625q0.484375 0.5 0.796875 1.125q0.328125 0.609375 0.484375 1.5q0.171875 0.890625 0.234375 1.75q0.078125 0.84375 0.078125 1.953125l0 0.359375l-6.0 0l0 0.75q0 0.15625 0 0.484375q-0.03125 0.421875 -0.015625 0.890625q0.015625 0.46875 0.03125 0.921875q0.03125 0.4375 0.140625 0.84375q0.109375 0.390625 0.25 0.703125q0.15625 0.296875 0.4375 0.484375q0.28125 0.171875 0.65625 0.171875q0.46875 0 0.765625 -0.171875q0.3125 -0.1875 0.453125 -0.546875q0.140625 -0.375 0.203125 -0.734375q0.0625 -0.359375 0.078125 -0.921875l0 -0.625l2.96875 0l0 0.59375q-0.109375 2.40625 -1.1875 3.640625q-1.078125 1.234375 -3.3125 1.234375zm-1.46875 -9.21875l2.96875 0l0 -0.90625q-0.015625 -0.59375 -0.078125 -1.03125q-0.046875 -0.453125 -0.203125 -0.890625q-0.140625 -0.453125 -0.453125 -0.6875q-0.296875 -0.234375 -0.734375 -0.234375q-0.46875 0 -0.78125 0.25q-0.296875 0.234375 -0.453125 0.703125q-0.140625 0.46875 -0.203125 0.921875q-0.0625 0.4375 -0.0625 1.046875l0 0.828125zm12.324219 9.21875q-1.765625 0 -2.578125 -0.90625q-0.796875 -0.90625 -0.8125 -2.734375l0 -9.328125l-1.5 0l0 -2.25l1.5 0l0 -5.25l3.0 0l0 5.25l2.25 0l0 2.25l-2.25 0l0 8.75q0 0.90625 0.234375 1.328125q0.25 0.421875 1.0 0.421875q0.328125 0 1.015625 -0.125l0 2.453125q-1.125 0.140625 -1.859375 0.140625zm5.6875 -0.21875l-2.78125 -15.0l2.65625 0l1.671875 11.390625l1.5625 -11.390625l2.75 0l1.59375 11.265625l1.640625 -11.265625l2.671875 0l-2.90625 15.0l-2.765625 0l-1.59375 -10.34375l-1.625 10.34375l-2.875 0zm21.042969 -1.1875q-1.046875 1.40625 -3.46875 1.40625q-2.40625 0 -3.453125 -1.40625q-1.03125 -1.421875 -1.03125 -4.0625l0 -4.5q0 -2.65625 1.03125 -4.0625q1.046875 -1.40625 3.453125 -1.40625q2.421875 0 3.46875 1.40625q1.046875 1.40625 1.046875 4.0625l0 4.5q0 2.640625 -1.046875 4.0625zm-4.015625 -1.15625q0.25 0.09375 0.5625 0.09375q0.3125 0 0.546875 -0.09375q0.25 -0.09375 0.40625 -0.21875q0.15625 -0.140625 0.265625 -0.40625q0.109375 -0.265625 0.15625 -0.46875q0.0625 -0.203125 0.078125 -0.578125q0.03125 -0.375 0.03125 -0.578125q0.015625 -0.21875 0.015625 -0.65625l0 -4.5q0 -0.4375 -0.015625 -0.65625q0 -0.21875 -0.03125 -0.59375q-0.015625 -0.375 -0.078125 -0.5625q-0.046875 -0.203125 -0.15625 -0.46875q-0.109375 -0.265625 -0.265625 -0.390625q-0.15625 -0.140625 -0.40625 -0.234375q-0.234375 -0.09375 -0.546875 -0.09375q-0.3125 0 -0.5625 0.09375q-0.234375 0.09375 -0.390625 0.234375q-0.15625 0.125 -0.265625 0.390625q-0.109375 0.265625 -0.171875 0.46875q-0.046875 0.1875 -0.078125 0.5625q-0.015625 0.375 -0.03125 0.59375q0 0.21875 0 0.65625l0 4.5q0 0.4375 0 0.65625q0.015625 0.203125 0.03125 0.578125q0.03125 0.375 0.078125 0.578125q0.0625 0.203125 0.171875 0.46875q0.109375 0.265625 0.265625 0.40625q0.15625 0.125 0.390625 0.21875zm7.5234375 2.34375l0 -15.0l3.0 0l0 2.0q0.453125 -0.890625 1.328125 -1.546875q0.875 -0.671875 1.9375 -0.671875q0.03125 0 0.484375 0.046875l0 3.328125q-0.828125 -0.328125 -1.671875 -0.328125q-0.9375 0 -1.515625 0.5625q-0.5625 0.5625 -0.5625 1.484375l0 10.125l-3.0 0zm8.121094 0l0 -21.0l3.0 0l0 11.546875l3.75 -5.546875l3.0 0l-3.359375 5.234375l3.359375 9.765625l-3.0 0l-2.25 -7.25l-1.5 2.0l0 5.25l-3.0 0z" fill-rule="nonzero"></path><path fill="#f3f3f3" d="m411.99615 160.97176l0 -12.75l-1.5 0l0 -2.25l1.5 0l0 -0.578125q0 -0.953125 0.0625 -1.609375q0.078125 -0.65625 0.296875 -1.265625q0.21875 -0.625 0.578125 -0.984375q0.375 -0.375 0.984375 -0.59375q0.625 -0.21875 1.484375 -0.21875q0.71875 0 1.84375 0.140625l0 2.21875q-0.109375 0 -0.484375 -0.046875q-0.359375 -0.0625 -0.515625 -0.0625q-0.75 0 -1.0 0.484375q-0.25 0.46875 -0.25 1.390625l0 1.125l2.25 0l0 2.25l-2.25 0l0 12.75l-3.0 0zm10.8828125 0.21875q-1.09375 0 -1.890625 -0.375q-0.796875 -0.390625 -1.28125 -0.984375q-0.46875 -0.609375 -0.765625 -1.546875q-0.296875 -0.953125 -0.40625 -1.890625q-0.109375 -0.9375 -0.125 -2.203125q-0.046875 -0.984375 0 -1.96875q0.03125 -1.171875 0.15625 -2.078125q0.125 -0.90625 0.421875 -1.75q0.3125 -0.859375 0.796875 -1.40625q0.484375 -0.5625 1.265625 -0.890625q0.796875 -0.34375 1.859375 -0.34375q0.953125 0 1.6875 0.265625q0.734375 0.25 1.21875 0.765625q0.484375 0.5 0.796875 1.125q0.328125 0.609375 0.484375 1.5q0.171875 0.890625 0.234375 1.75q0.078125 0.84375 0.078125 1.953125l0 0.359375l-6.0 0l0 0.75q0 0.15625 0 0.484375q-0.03125 0.421875 -0.015625 0.890625q0.015625 0.46875 0.03125 0.921875q0.03125 0.4375 0.140625 0.84375q0.109375 0.390625 0.25 0.703125q0.15625 0.296875 0.4375 0.484375q0.28125 0.171875 0.65625 0.171875q0.46875 0 0.765625 -0.171875q0.3125 -0.1875 0.453125 -0.546875q0.140625 -0.375 0.203125 -0.734375q0.0625 -0.359375 0.078125 -0.921875l0 -0.625l2.96875 0l0 0.59375q-0.109375 2.40625 -1.1875 3.640625q-1.078125 1.234375 -3.3125 1.234375zm-1.46875 -9.21875l2.96875 0l0 -0.90625q-0.015625 -0.59375 -0.078125 -1.03125q-0.046875 -0.453125 -0.203125 -0.890625q-0.140625 -0.453125 -0.453125 -0.6875q-0.296875 -0.234375 -0.734375 -0.234375q-0.46875 0 -0.78125 0.25q-0.296875 0.234375 -0.453125 0.703125q-0.140625 0.46875 -0.203125 0.921875q-0.0625 0.4375 -0.0625 1.046875l0 0.828125zm12.277344 6.75q0.3125 0 0.609375 -0.1875q0.3125 -0.1875 0.453125 -0.359375q0.15625 -0.1875 0.375 -0.46875q0.046875 -0.0625 0.0625 -0.09375l0 -4.140625q-0.1875 0.125 -0.625 0.40625q-0.421875 0.265625 -0.6875 0.4375q-0.25 0.15625 -0.625 0.46875q-0.359375 0.296875 -0.5625 0.578125q-0.1875 0.265625 -0.34375 0.671875q-0.15625 0.390625 -0.15625 0.828125q0 1.859375 1.5 1.859375zm-1.5 2.46875q-1.25 0 -2.125 -1.078125q-0.875 -1.09375 -0.875 -2.453125q0 -1.09375 0.359375 -1.984375q0.375 -0.890625 0.78125 -1.421875q0.421875 -0.53125 1.375 -1.09375q0.96875 -0.578125 1.453125 -0.78125q0.5 -0.21875 1.71875 -0.703125q0.203125 -0.078125 0.3125 -0.125l0 -1.078125q0 -1.140625 -0.3125 -1.765625q-0.3125 -0.625 -1.1875 -0.625q-0.765625 0 -1.109375 0.53125q-0.328125 0.53125 -0.375 1.46875q-0.015625 0.125 -0.015625 0.390625l-3.0 0q0.03125 -2.15625 1.203125 -3.4375q1.1875 -1.28125 3.296875 -1.28125q2.09375 0 3.296875 1.296875q1.203125 1.296875 1.203125 3.421875l0 6.75q0 2.34375 0.390625 3.75l-2.984375 0l-0.40625 -2.25q-0.234375 0.46875 -0.390625 0.734375q-0.140625 0.25 -0.421875 0.640625q-0.28125 0.375 -0.5625 0.578125q-0.28125 0.203125 -0.703125 0.359375q-0.421875 0.15625 -0.921875 0.15625zm12.738281 0q-1.765625 0 -2.578125 -0.90625q-0.796875 -0.90625 -0.8125 -2.734375l0 -9.328125l-1.5 0l0 -2.25l1.5 0l0 -5.25l3.0 0l0 5.25l2.25 0l0 2.25l-2.25 0l0 8.75q0 0.90625 0.234375 1.328125q0.25 0.421875 1.0 0.421875q0.328125 0 1.015625 -0.125l0 2.453125q-1.125 0.140625 -1.859375 0.140625zm6.1875 0q-0.984375 0 -1.578125 -0.703125q-0.59375 -0.703125 -0.59375 -1.734375l0 -12.78125l3.0 0l0 11.875q0 0.46875 0.28125 0.765625q0.28125 0.28125 0.75 0.28125q0.234375 0 0.46875 -0.046875q0.234375 -0.0625 0.46875 -0.203125q0.234375 -0.15625 0.359375 -0.234375q0.125 -0.09375 0.359375 -0.296875q0.25 -0.21875 0.3125 -0.265625l0 -11.875l3.0 0l0 15.0l-3.0 0l0 -1.625q-0.453125 0.390625 -0.65625 0.578125q-0.203125 0.171875 -0.625 0.46875q-0.421875 0.296875 -0.75 0.4375q-0.3125 0.125 -0.796875 0.234375q-0.484375 0.125 -1.0 0.125zm9.425781 -0.21875l0 -15.0l3.0 0l0 2.0q0.453125 -0.890625 1.328125 -1.546875q0.875 -0.671875 1.9375 -0.671875q0.03125 0 0.484375 0.046875l0 3.328125q-0.828125 -0.328125 -1.671875 -0.328125q-0.9375 0 -1.515625 0.5625q-0.5625 0.5625 -0.5625 1.484375l0 10.125l-3.0 0zm12.355469 0.21875q-1.09375 0 -1.890625 -0.375q-0.796875 -0.390625 -1.28125 -0.984375q-0.46875 -0.609375 -0.765625 -1.546875q-0.296875 -0.953125 -0.40625 -1.890625q-0.109375 -0.9375 -0.125 -2.203125q-0.046875 -0.984375 0 -1.96875q0.03125 -1.171875 0.15625 -2.078125q0.125 -0.90625 0.421875 -1.75q0.3125 -0.859375 0.796875 -1.40625q0.484375 -0.5625 1.265625 -0.890625q0.796875 -0.34375 1.859375 -0.34375q0.953125 0 1.6875 0.265625q0.734375 0.25 1.21875 0.765625q0.484375 0.5 0.796875 1.125q0.328125 0.609375 0.484375 1.5q0.171875 0.890625 0.234375 1.75q0.078125 0.84375 0.078125 1.953125l0 0.359375l-6.0 0l0 0.75q0 0.15625 0 0.484375q-0.03125 0.421875 -0.015625 0.890625q0.015625 0.46875 0.03125 0.921875q0.03125 0.4375 0.140625 0.84375q0.109375 0.390625 0.25 0.703125q0.15625 0.296875 0.4375 0.484375q0.28125 0.171875 0.65625 0.171875q0.46875 0 0.765625 -0.171875q0.3125 -0.1875 0.453125 -0.546875q0.140625 -0.375 0.203125 -0.734375q0.0625 -0.359375 0.078125 -0.921875l0 -0.625l2.96875 0l0 0.59375q-0.109375 2.40625 -1.1875 3.640625q-1.078125 1.234375 -3.3125 1.234375zm-1.46875 -9.21875l2.96875 0l0 -0.90625q-0.015625 -0.59375 -0.078125 -1.03125q-0.046875 -0.453125 -0.203125 -0.890625q-0.140625 -0.453125 -0.453125 -0.6875q-0.296875 -0.234375 -0.734375 -0.234375q-0.46875 0 -0.78125 0.25q-0.296875 0.234375 -0.453125 0.703125q-0.140625 0.46875 -0.203125 0.921875q-0.0625 0.4375 -0.0625 1.046875l0 0.828125zm12.105469 9.21875q-1.859375 0 -2.984375 -1.109375q-1.109375 -1.109375 -1.515625 -2.859375l2.25 -0.75q0.8125 2.25 2.25 2.25q0.71875 0 1.109375 -0.390625q0.390625 -0.390625 0.390625 -1.109375q0 -1.046875 -0.75 -1.734375l-3.0 -2.25q-0.5 -0.34375 -0.84375 -0.640625q-0.34375 -0.296875 -0.703125 -0.734375q-0.34375 -0.4375 -0.53125 -0.96875q-0.171875 -0.546875 -0.171875 -1.171875q0 -1.921875 1.21875 -2.9375q1.234375 -1.03125 3.28125 -1.03125q0.96875 0 1.75 0.3125q0.796875 0.3125 1.328125 0.875q0.53125 0.5625 0.875 1.25q0.34375 0.6875 0.546875 1.53125l-2.25 0.75q-0.171875 -0.453125 -0.34375 -0.765625q-0.15625 -0.328125 -0.4375 -0.703125q-0.265625 -0.375 -0.640625 -0.578125q-0.375 -0.203125 -0.828125 -0.203125q-0.71875 0 -1.109375 0.390625q-0.390625 0.390625 -0.390625 1.109375q0 0.703125 0.75 1.265625l3.0 2.25q0.5 0.390625 0.859375 0.765625q0.359375 0.375 0.6875 0.859375q0.34375 0.484375 0.515625 1.078125q0.1875 0.59375 0.1875 1.28125q0 1.921875 -1.234375 2.953125q-1.21875 1.015625 -3.265625 1.015625z" fill-rule="nonzero"></path><path fill="#000000" fill-opacity="0.0" d="m557.50134 99.931755l148.40942 0l0 61.19686l-148.40942 0z" fill-rule="nonzero"></path><path fill="#f3f3f3" d="m571.00134 119.971756l1.5 0q3.75 0 3.75 -3.75q0 -0.625 -0.15625 -1.09375q-0.140625 -0.484375 -0.359375 -0.796875q-0.203125 -0.3125 -0.640625 -0.53125q-0.421875 -0.21875 -0.78125 -0.328125q-0.34375 -0.125 -1.0 -0.171875q-0.640625 -0.0625 -1.078125 -0.0625q-0.4375 -0.015625 -1.234375 -0.015625l0 6.75zm0 9.75l1.5 0q1.953125 0 2.84375 -0.890625q0.90625 -0.90625 0.90625 -2.859375q0 -1.953125 -0.90625 -2.84375q-0.890625 -0.90625 -2.84375 -0.90625l-1.5 0l0 7.5zm-3.0 2.25l0 -21.0l4.5 0q1.453125 0 2.59375 0.3125q1.15625 0.296875 2.015625 0.921875q0.859375 0.609375 1.328125 1.640625q0.46875 1.015625 0.46875 2.375q0 1.96875 -0.84375 3.0q-0.828125 1.015625 -2.5625 1.5q1.875 0.625 2.8125 1.828125q0.9375 1.1875 0.9375 3.421875q0 2.78125 -1.609375 4.390625q-1.609375 1.609375 -4.390625 1.609375l-5.25 0zm20.976562 -1.1875q-1.046875 1.40625 -3.46875 1.40625q-2.40625 0 -3.453125 -1.40625q-1.03125 -1.421875 -1.03125 -4.0625l0 -4.5q0 -2.65625 1.03125 -4.0625q1.046875 -1.40625 3.453125 -1.40625q2.421875 0 3.46875 1.40625q1.046875 1.40625 1.046875 4.0625l0 4.5q0 2.640625 -1.046875 4.0625zm-4.015625 -1.15625q0.25 0.09375 0.5625 0.09375q0.3125 0 0.546875 -0.09375q0.25 -0.09375 0.40625 -0.21875q0.15625 -0.140625 0.265625 -0.40625q0.109375 -0.265625 0.15625 -0.46875q0.0625 -0.203125 0.078125 -0.578125q0.03125 -0.375 0.03125 -0.578125q0.015625 -0.21875 0.015625 -0.65625l0 -4.5q0 -0.4375 -0.015625 -0.65625q0 -0.21875 -0.03125 -0.59375q-0.015625 -0.375 -0.078125 -0.5625q-0.046875 -0.203125 -0.15625 -0.46875q-0.109375 -0.265625 -0.265625 -0.390625q-0.15625 -0.140625 -0.40625 -0.234375q-0.234375 -0.09375 -0.546875 -0.09375q-0.3125 0 -0.5625 0.09375q-0.234375 0.09375 -0.390625 0.234375q-0.15625 0.125 -0.265625 0.390625q-0.109375 0.265625 -0.171875 0.46875q-0.046875 0.1875 -0.078125 0.5625q-0.015625 0.375 -0.03125 0.59375q0 0.21875 0 0.65625l0 4.5q0 0.4375 0 0.65625q0.015625 0.203125 0.03125 0.578125q0.03125 0.375 0.078125 0.578125q0.0625 0.203125 0.171875 0.46875q0.109375 0.265625 0.265625 0.40625q0.15625 0.125 0.390625 0.21875zm15.1953125 1.15625q-1.046875 1.40625 -3.46875 1.40625q-2.40625 0 -3.453125 -1.40625q-1.03125 -1.421875 -1.03125 -4.0625l0 -4.5q0 -2.65625 1.03125 -4.0625q1.046875 -1.40625 3.453125 -1.40625q2.421875 0 3.46875 1.40625q1.046875 1.40625 1.046875 4.0625l0 4.5q0 2.640625 -1.046875 4.0625zm-4.015625 -1.15625q0.25 0.09375 0.5625 0.09375q0.3125 0 0.546875 -0.09375q0.25 -0.09375 0.40625 -0.21875q0.15625 -0.140625 0.265625 -0.40625q0.109375 -0.265625 0.15625 -0.46875q0.0625 -0.203125 0.078125 -0.578125q0.03125 -0.375 0.03125 -0.578125q0.015625 -0.21875 0.015625 -0.65625l0 -4.5q0 -0.4375 -0.015625 -0.65625q0 -0.21875 -0.03125 -0.59375q-0.015625 -0.375 -0.078125 -0.5625q-0.046875 -0.203125 -0.15625 -0.46875q-0.109375 -0.265625 -0.265625 -0.390625q-0.15625 -0.140625 -0.40625 -0.234375q-0.234375 -0.09375 -0.546875 -0.09375q-0.3125 0 -0.5625 0.09375q-0.234375 0.09375 -0.390625 0.234375q-0.15625 0.125 -0.265625 0.390625q-0.109375 0.265625 -0.171875 0.46875q-0.046875 0.1875 -0.078125 0.5625q-0.015625 0.375 -0.03125 0.59375q0 0.21875 0 0.65625l0 4.5q0 0.4375 0 0.65625q0.015625 0.203125 0.03125 0.578125q0.03125 0.375 0.078125 0.578125q0.0625 0.203125 0.171875 0.46875q0.109375 0.265625 0.265625 0.40625q0.15625 0.125 0.390625 0.21875zm11.4609375 2.5625q-1.859375 0 -2.984375 -1.109375q-1.109375 -1.109375 -1.515625 -2.859375l2.25 -0.75q0.8125 2.25 2.25 2.25q0.71875 0 1.109375 -0.390625q0.390625 -0.390625 0.390625 -1.109375q0 -1.046875 -0.75 -1.734375l-3.0 -2.25q-0.5 -0.34375 -0.84375 -0.640625q-0.34375 -0.296875 -0.703125 -0.734375q-0.34375 -0.4375 -0.53125 -0.96875q-0.171875 -0.546875 -0.171875 -1.171875q0 -1.921875 1.21875 -2.9375q1.234375 -1.03125 3.28125 -1.03125q0.96875 0 1.75 0.3125q0.796875 0.3125 1.328125 0.875q0.53125 0.5625 0.875 1.25q0.34375 0.6875 0.546875 1.53125l-2.25 0.75q-0.171875 -0.453125 -0.34375 -0.765625q-0.15625 -0.328125 -0.4375 -0.703125q-0.265625 -0.375 -0.640625 -0.578125q-0.375 -0.203125 -0.828125 -0.203125q-0.71875 0 -1.109375 0.390625q-0.390625 0.390625 -0.390625 1.109375q0 0.703125 0.75 1.265625l3.0 2.25q0.5 0.390625 0.859375 0.765625q0.359375 0.375 0.6875 0.859375q0.34375 0.484375 0.515625 1.078125q0.1875 0.59375 0.1875 1.28125q0 1.921875 -1.234375 2.953125q-1.21875 1.015625 -3.265625 1.015625zm10.484375 0q-1.765625 0 -2.578125 -0.90625q-0.796875 -0.90625 -0.8125 -2.734375l0 -9.328125l-1.5 0l0 -2.25l1.5 0l0 -5.25l3.0 0l0 5.25l2.25 0l0 2.25l-2.25 0l0 8.75q0 0.90625 0.234375 1.328125q0.25 0.421875 1.0 0.421875q0.328125 0 1.015625 -0.125l0 2.453125q-1.125 0.140625 -1.859375 0.140625zm8.28125 0q-1.09375 0 -1.890625 -0.375q-0.796875 -0.390625 -1.28125 -0.984375q-0.46875 -0.609375 -0.765625 -1.546875q-0.296875 -0.953125 -0.40625 -1.890625q-0.109375 -0.9375 -0.125 -2.203125q-0.046875 -0.984375 0 -1.96875q0.03125 -1.171875 0.15625 -2.078125q0.125 -0.90625 0.421875 -1.75q0.3125 -0.859375 0.796875 -1.40625q0.484375 -0.5625 1.265625 -0.890625q0.796875 -0.34375 1.859375 -0.34375q0.953125 0 1.6875 0.265625q0.734375 0.25 1.21875 0.765625q0.484375 0.5 0.796875 1.125q0.328125 0.609375 0.484375 1.5q0.171875 0.890625 0.234375 1.75q0.078125 0.84375 0.078125 1.953125l0 0.359375l-6.0 0l0 0.75q0 0.15625 0 0.484375q-0.03125 0.421875 -0.015625 0.890625q0.015625 0.46875 0.03125 0.921875q0.03125 0.4375 0.140625 0.84375q0.109375 0.390625 0.25 0.703125q0.15625 0.296875 0.4375 0.484375q0.28125 0.171875 0.65625 0.171875q0.46875 0 0.765625 -0.171875q0.3125 -0.1875 0.453125 -0.546875q0.140625 -0.375 0.203125 -0.734375q0.0625 -0.359375 0.078125 -0.921875l0 -0.625l2.96875 0l0 0.59375q-0.109375 2.40625 -1.1875 3.640625q-1.078125 1.234375 -3.3125 1.234375zm-1.46875 -9.21875l2.96875 0l0 -0.90625q-0.015625 -0.59375 -0.078125 -1.03125q-0.046875 -0.453125 -0.203125 -0.890625q-0.140625 -0.453125 -0.453125 -0.6875q-0.296875 -0.234375 -0.734375 -0.234375q-0.46875 0 -0.78125 0.25q-0.296875 0.234375 -0.453125 0.703125q-0.140625 0.46875 -0.203125 0.921875q-0.0625 0.4375 -0.0625 1.046875l0 0.828125zm12.433594 6.75q1.078125 0 2.25 -0.46875l0 -9.4375q-1.015625 -0.59375 -2.25 -0.59375q-0.453125 0 -0.765625 0.21875q-0.296875 0.21875 -0.453125 0.640625q-0.140625 0.40625 -0.21875 0.84375q-0.0625 0.4375 -0.078125 1.03125q-0.046875 2.625 0 4.171875q0.015625 0.75 0.078125 1.34375q0.078125 0.578125 0.234375 1.125q0.15625 0.53125 0.453125 0.828125q0.3125 0.296875 0.75 0.296875zm-0.75 2.46875q-1.0 0 -1.75 -0.5625q-0.734375 -0.578125 -1.140625 -1.53125q-0.40625 -0.96875 -0.609375 -2.0q-0.203125 -1.03125 -0.25 -2.234375q-0.015625 -0.546875 0 -2.6875q0.03125 -0.78125 0.078125 -1.40625q0.046875 -0.625 0.15625 -1.296875q0.109375 -0.6875 0.28125 -1.203125q0.171875 -0.53125 0.453125 -1.015625q0.28125 -0.484375 0.65625 -0.796875q0.375 -0.328125 0.890625 -0.515625q0.53125 -0.1875 1.1875 -0.1875q0.5 0 0.9375 0.140625q0.4375 0.140625 0.828125 0.421875q0.40625 0.28125 0.640625 0.515625q0.25 0.21875 0.640625 0.625l0 -7.46875l3.0 0l0 20.984375l-3.0 0l0 -1.359375q-0.6875 0.703125 -1.390625 1.140625q-0.703125 0.4375 -1.609375 0.4375zm16.023438 -0.21875l0 -18.328125l-3.75 0l0 -2.671875l10.5 0l0 2.671875l-3.75 0l0 18.328125l-3.0 0zm8.1171875 0l0 -15.0l3.0 0l0 2.0q0.453125 -0.890625 1.328125 -1.546875q0.875 -0.671875 1.9375 -0.671875q0.03125 0 0.484375 0.046875l0 3.328125q-0.828125 -0.328125 -1.671875 -0.328125q-0.9375 0 -1.515625 0.5625q-0.5625 0.5625 -0.5625 1.484375l0 10.125l-3.0 0zm12.355469 0.21875q-1.09375 0 -1.890625 -0.375q-0.796875 -0.390625 -1.28125 -0.984375q-0.46875 -0.609375 -0.765625 -1.546875q-0.296875 -0.953125 -0.40625 -1.890625q-0.109375 -0.9375 -0.125 -2.203125q-0.046875 -0.984375 0 -1.96875q0.03125 -1.171875 0.15625 -2.078125q0.125 -0.90625 0.421875 -1.75q0.3125 -0.859375 0.796875 -1.40625q0.484375 -0.5625 1.265625 -0.890625q0.796875 -0.34375 1.859375 -0.34375q0.953125 0 1.6875 0.265625q0.734375 0.25 1.21875 0.765625q0.484375 0.5 0.796875 1.125q0.328125 0.609375 0.484375 1.5q0.171875 0.890625 0.234375 1.75q0.078125 0.84375 0.078125 1.953125l0 0.359375l-6.0 0l0 0.75q0 0.15625 0 0.484375q-0.03125 0.421875 -0.015625 0.890625q0.015625 0.46875 0.03125 0.921875q0.03125 0.4375 0.140625 0.84375q0.109375 0.390625 0.25 0.703125q0.15625 0.296875 0.4375 0.484375q0.28125 0.171875 0.65625 0.171875q0.46875 0 0.765625 -0.171875q0.3125 -0.1875 0.453125 -0.546875q0.140625 -0.375 0.203125 -0.734375q0.0625 -0.359375 0.078125 -0.921875l0 -0.625l2.96875 0l0 0.59375q-0.109375 2.40625 -1.1875 3.640625q-1.078125 1.234375 -3.3125 1.234375zm-1.46875 -9.21875l2.96875 0l0 -0.90625q-0.015625 -0.59375 -0.078125 -1.03125q-0.046875 -0.453125 -0.203125 -0.890625q-0.140625 -0.453125 -0.453125 -0.6875q-0.296875 -0.234375 -0.734375 -0.234375q-0.46875 0 -0.78125 0.25q-0.296875 0.234375 -0.453125 0.703125q-0.140625 0.46875 -0.203125 0.921875q-0.0625 0.4375 -0.0625 1.046875l0 0.828125zm12.402344 9.21875q-1.09375 0 -1.890625 -0.375q-0.796875 -0.390625 -1.28125 -0.984375q-0.46875 -0.609375 -0.765625 -1.546875q-0.296875 -0.953125 -0.40625 -1.890625q-0.109375 -0.9375 -0.125 -2.203125q-0.046875 -0.984375 0 -1.96875q0.03125 -1.171875 0.15625 -2.078125q0.125 -0.90625 0.421875 -1.75q0.3125 -0.859375 0.796875 -1.40625q0.484375 -0.5625 1.265625 -0.890625q0.796875 -0.34375 1.859375 -0.34375q0.953125 0 1.6875 0.265625q0.734375 0.25 1.21875 0.765625q0.484375 0.5 0.796875 1.125q0.328125 0.609375 0.484375 1.5q0.171875 0.890625 0.234375 1.75q0.078125 0.84375 0.078125 1.953125l0 0.359375l-6.0 0l0 0.75q0 0.15625 0 0.484375q-0.03125 0.421875 -0.015625 0.890625q0.015625 0.46875 0.03125 0.921875q0.03125 0.4375 0.140625 0.84375q0.109375 0.390625 0.25 0.703125q0.15625 0.296875 0.4375 0.484375q0.28125 0.171875 0.65625 0.171875q0.46875 0 0.765625 -0.171875q0.3125 -0.1875 0.453125 -0.546875q0.140625 -0.375 0.203125 -0.734375q0.0625 -0.359375 0.078125 -0.921875l0 -0.625l2.96875 0l0 0.59375q-0.109375 2.40625 -1.1875 3.640625q-1.078125 1.234375 -3.3125 1.234375zm-1.46875 -9.21875l2.96875 0l0 -0.90625q-0.015625 -0.59375 -0.078125 -1.03125q-0.046875 -0.453125 -0.203125 -0.890625q-0.140625 -0.453125 -0.453125 -0.6875q-0.296875 -0.234375 -0.734375 -0.234375q-0.46875 0 -0.78125 0.25q-0.296875 0.234375 -0.453125 0.703125q-0.140625 0.46875 -0.203125 0.921875q-0.0625 0.4375 -0.0625 1.046875l0 0.828125z" fill-rule="nonzero"></path><path fill="#f3f3f3" d="m568.6576 160.97176l0 -12.75l-1.5 0l0 -2.25l1.5 0l0 -0.578125q0 -0.953125 0.0625 -1.609375q0.078125 -0.65625 0.296875 -1.265625q0.21875 -0.625 0.578125 -0.984375q0.375 -0.375 0.984375 -0.59375q0.625 -0.21875 1.484375 -0.21875q0.71875 0 1.84375 0.140625l0 2.21875q-0.109375 0 -0.484375 -0.046875q-0.359375 -0.0625 -0.515625 -0.0625q-0.75 0 -1.0 0.484375q-0.25 0.46875 -0.25 1.390625l0 1.125l2.25 0l0 2.25l-2.25 0l0 12.75l-3.0 0zm10.8828125 0.21875q-1.09375 0 -1.890625 -0.375q-0.796875 -0.390625 -1.28125 -0.984375q-0.46875 -0.609375 -0.765625 -1.546875q-0.296875 -0.953125 -0.40625 -1.890625q-0.109375 -0.9375 -0.125 -2.203125q-0.046875 -0.984375 0 -1.96875q0.03125 -1.171875 0.15625 -2.078125q0.125 -0.90625 0.421875 -1.75q0.3125 -0.859375 0.796875 -1.40625q0.484375 -0.5625 1.265625 -0.890625q0.796875 -0.34375 1.859375 -0.34375q0.953125 0 1.6875 0.265625q0.734375 0.25 1.21875 0.765625q0.484375 0.5 0.796875 1.125q0.328125 0.609375 0.484375 1.5q0.171875 0.890625 0.234375 1.75q0.078125 0.84375 0.078125 1.953125l0 0.359375l-6.0 0l0 0.75q0 0.15625 0 0.484375q-0.03125 0.421875 -0.015625 0.890625q0.015625 0.46875 0.03125 0.921875q0.03125 0.4375 0.140625 0.84375q0.109375 0.390625 0.25 0.703125q0.15625 0.296875 0.4375 0.484375q0.28125 0.171875 0.65625 0.171875q0.46875 0 0.765625 -0.171875q0.3125 -0.1875 0.453125 -0.546875q0.140625 -0.375 0.203125 -0.734375q0.0625 -0.359375 0.078125 -0.921875l0 -0.625l2.96875 0l0 0.59375q-0.109375 2.40625 -1.1875 3.640625q-1.078125 1.234375 -3.3125 1.234375zm-1.46875 -9.21875l2.96875 0l0 -0.90625q-0.015625 -0.59375 -0.078125 -1.03125q-0.046875 -0.453125 -0.203125 -0.890625q-0.140625 -0.453125 -0.453125 -0.6875q-0.296875 -0.234375 -0.734375 -0.234375q-0.46875 0 -0.78125 0.25q-0.296875 0.234375 -0.453125 0.703125q-0.140625 0.46875 -0.203125 0.921875q-0.0625 0.4375 -0.0625 1.046875l0 0.828125zm12.277344 6.75q0.3125 0 0.609375 -0.1875q0.3125 -0.1875 0.453125 -0.359375q0.15625 -0.1875 0.375 -0.46875q0.046875 -0.0625 0.0625 -0.09375l0 -4.140625q-0.1875 0.125 -0.625 0.40625q-0.421875 0.265625 -0.6875 0.4375q-0.25 0.15625 -0.625 0.46875q-0.359375 0.296875 -0.5625 0.578125q-0.1875 0.265625 -0.34375 0.671875q-0.15625 0.390625 -0.15625 0.828125q0 1.859375 1.5 1.859375zm-1.5 2.46875q-1.25 0 -2.125 -1.078125q-0.875 -1.09375 -0.875 -2.453125q0 -1.09375 0.359375 -1.984375q0.375 -0.890625 0.78125 -1.421875q0.421875 -0.53125 1.375 -1.09375q0.96875 -0.578125 1.453125 -0.78125q0.5 -0.21875 1.71875 -0.703125q0.203125 -0.078125 0.3125 -0.125l0 -1.078125q0 -1.140625 -0.3125 -1.765625q-0.3125 -0.625 -1.1875 -0.625q-0.765625 0 -1.109375 0.53125q-0.328125 0.53125 -0.375 1.46875q-0.015625 0.125 -0.015625 0.390625l-3.0 0q0.03125 -2.15625 1.203125 -3.4375q1.1875 -1.28125 3.296875 -1.28125q2.09375 0 3.296875 1.296875q1.203125 1.296875 1.203125 3.421875l0 6.75q0 2.34375 0.390625 3.75l-2.984375 0l-0.40625 -2.25q-0.234375 0.46875 -0.390625 0.734375q-0.140625 0.25 -0.421875 0.640625q-0.28125 0.375 -0.5625 0.578125q-0.28125 0.203125 -0.703125 0.359375q-0.421875 0.15625 -0.921875 0.15625zm12.738281 0q-1.765625 0 -2.578125 -0.90625q-0.796875 -0.90625 -0.8125 -2.734375l0 -9.328125l-1.5 0l0 -2.25l1.5 0l0 -5.25l3.0 0l0 5.25l2.25 0l0 2.25l-2.25 0l0 8.75q0 0.90625 0.234375 1.328125q0.25 0.421875 1.0 0.421875q0.328125 0 1.015625 -0.125l0 2.453125q-1.125 0.140625 -1.859375 0.140625zm6.1875 0q-0.984375 0 -1.578125 -0.703125q-0.59375 -0.703125 -0.59375 -1.734375l0 -12.78125l3.0 0l0 11.875q0 0.46875 0.28125 0.765625q0.28125 0.28125 0.75 0.28125q0.234375 0 0.46875 -0.046875q0.234375 -0.0625 0.46875 -0.203125q0.234375 -0.15625 0.359375 -0.234375q0.125 -0.09375 0.359375 -0.296875q0.25 -0.21875 0.3125 -0.265625l0 -11.875l3.0 0l0 15.0l-3.0 0l0 -1.625q-0.453125 0.390625 -0.65625 0.578125q-0.203125 0.171875 -0.625 0.46875q-0.421875 0.296875 -0.75 0.4375q-0.3125 0.125 -0.796875 0.234375q-0.484375 0.125 -1.0 0.125zm9.425781 -0.21875l0 -15.0l3.0 0l0 2.0q0.453125 -0.890625 1.328125 -1.546875q0.875 -0.671875 1.9375 -0.671875q0.03125 0 0.484375 0.046875l0 3.328125q-0.828125 -0.328125 -1.671875 -0.328125q-0.9375 0 -1.515625 0.5625q-0.5625 0.5625 -0.5625 1.484375l0 10.125l-3.0 0zm12.355469 0.21875q-1.09375 0 -1.890625 -0.375q-0.796875 -0.390625 -1.28125 -0.984375q-0.46875 -0.609375 -0.765625 -1.546875q-0.296875 -0.953125 -0.40625 -1.890625q-0.109375 -0.9375 -0.125 -2.203125q-0.046875 -0.984375 0 -1.96875q0.03125 -1.171875 0.15625 -2.078125q0.125 -0.90625 0.421875 -1.75q0.3125 -0.859375 0.796875 -1.40625q0.484375 -0.5625 1.265625 -0.890625q0.796875 -0.34375 1.859375 -0.34375q0.953125 0 1.6875 0.265625q0.734375 0.25 1.21875 0.765625q0.484375 0.5 0.796875 1.125q0.328125 0.609375 0.484375 1.5q0.171875 0.890625 0.234375 1.75q0.078125 0.84375 0.078125 1.953125l0 0.359375l-6.0 0l0 0.75q0 0.15625 0 0.484375q-0.03125 0.421875 -0.015625 0.890625q0.015625 0.46875 0.03125 0.921875q0.03125 0.4375 0.140625 0.84375q0.109375 0.390625 0.25 0.703125q0.15625 0.296875 0.4375 0.484375q0.28125 0.171875 0.65625 0.171875q0.46875 0 0.765625 -0.171875q0.3125 -0.1875 0.453125 -0.546875q0.140625 -0.375 0.203125 -0.734375q0.0625 -0.359375 0.078125 -0.921875l0 -0.625l2.96875 0l0 0.59375q-0.109375 2.40625 -1.1875 3.640625q-1.078125 1.234375 -3.3125 1.234375zm-1.46875 -9.21875l2.96875 0l0 -0.90625q-0.015625 -0.59375 -0.078125 -1.03125q-0.046875 -0.453125 -0.203125 -0.890625q-0.140625 -0.453125 -0.453125 -0.6875q-0.296875 -0.234375 -0.734375 -0.234375q-0.46875 0 -0.78125 0.25q-0.296875 0.234375 -0.453125 0.703125q-0.140625 0.46875 -0.203125 0.921875q-0.0625 0.4375 -0.0625 1.046875l0 0.828125zm12.105469 9.21875q-1.859375 0 -2.984375 -1.109375q-1.109375 -1.109375 -1.515625 -2.859375l2.25 -0.75q0.8125 2.25 2.25 2.25q0.71875 0 1.109375 -0.390625q0.390625 -0.390625 0.390625 -1.109375q0 -1.046875 -0.75 -1.734375l-3.0 -2.25q-0.5 -0.34375 -0.84375 -0.640625q-0.34375 -0.296875 -0.703125 -0.734375q-0.34375 -0.4375 -0.53125 -0.96875q-0.171875 -0.546875 -0.171875 -1.171875q0 -1.921875 1.21875 -2.9375q1.234375 -1.03125 3.28125 -1.03125q0.96875 0 1.75 0.3125q0.796875 0.3125 1.328125 0.875q0.53125 0.5625 0.875 1.25q0.34375 0.6875 0.546875 1.53125l-2.25 0.75q-0.171875 -0.453125 -0.34375 -0.765625q-0.15625 -0.328125 -0.4375 -0.703125q-0.265625 -0.375 -0.640625 -0.578125q-0.375 -0.203125 -0.828125 -0.203125q-0.71875 0 -1.109375 0.390625q-0.390625 0.390625 -0.390625 1.109375q0 0.703125 0.75 1.265625l3.0 2.25q0.5 0.390625 0.859375 0.765625q0.359375 0.375 0.6875 0.859375q0.34375 0.484375 0.515625 1.078125q0.1875 0.59375 0.1875 1.28125q0 1.921875 -1.234375 2.953125q-1.21875 1.015625 -3.265625 1.015625z" fill-rule="nonzero"></path><path fill="#000000" fill-opacity="0.0" d="m274.3386 20.10761l267.46457 0l0 61.196846l-267.46457 0z" fill-rule="nonzero"></path><path fill="#f3f3f3" d="m284.8386 52.147614l0 -21.000002l8.25 0l0 2.250002l-5.25 0l0 6.75l3.75 0l0 2.25l-3.75 0l0 7.5l5.25 0l0 2.25l-8.25 0zm9.964844 0l0 -15.0l3.0 0l0 1.609375q0.671875 -0.609375 1.09375 -0.921875q0.421875 -0.328125 1.15625 -0.609375q0.75 -0.296875 1.59375 -0.296875q0.953125 0 1.546875 0.703125q0.609375 0.703125 0.609375 1.734375l0 12.78125l-3.0 0l0 -11.25q0 -0.78125 -0.234375 -1.140625q-0.21875 -0.359375 -0.890625 -0.359375q-0.390625 0 -0.78125 0.15625q-0.375 0.15625 -0.5625 0.296875q-0.1875 0.125 -0.53125 0.421875l0 11.875l-3.0 0zm15.5625 0.21875q-1.859375 0 -2.984375 -1.109375q-1.109375 -1.109375 -1.515625 -2.859375l2.25 -0.75q0.8125 2.25 2.25 2.25q0.71875 0 1.109375 -0.390625q0.390625 -0.390625 0.390625 -1.109375q0 -1.046875 -0.75 -1.734375l-3.0 -2.25q-0.5 -0.34375 -0.84375 -0.640625q-0.34375 -0.296875 -0.703125 -0.734375q-0.34375 -0.4375 -0.53125 -0.96875q-0.171875 -0.546875 -0.171875 -1.171875q0 -1.921875 1.21875 -2.9375q1.234375 -1.03125 3.28125 -1.03125q0.96875 0 1.75 0.3125q0.796875 0.3125 1.328125 0.875q0.53125 0.5625 0.875 1.25q0.34375 0.6875 0.546875 1.53125l-2.25 0.75q-0.171875 -0.453125 -0.34375 -0.765625q-0.15625 -0.328125 -0.4375 -0.703125q-0.265625 -0.375 -0.640625 -0.578125q-0.375 -0.203125 -0.828125 -0.203125q-0.71875 0 -1.109375 0.390625q-0.390625 0.390625 -0.390625 1.109375q0 0.703125 0.75 1.265625l3.0 2.25q0.5 0.390625 0.859375 0.765625q0.359375 0.375 0.6875 0.859375q0.34375 0.484375 0.515625 1.078125q0.1875 0.59375 0.1875 1.28125q0 1.921875 -1.234375 2.953125q-1.21875 1.015625 -3.265625 1.015625zm10.5625 0q-1.09375 0 -1.890625 -0.375q-0.796875 -0.390625 -1.28125 -0.984375q-0.46875 -0.609375 -0.765625 -1.546875q-0.296875 -0.953125 -0.40625 -1.890625q-0.109375 -0.9375 -0.125 -2.203125q-0.046875 -0.984375 0 -1.96875q0.03125 -1.171875 0.15625 -2.078125q0.125 -0.90625 0.421875 -1.75q0.3125 -0.859375 0.796875 -1.40625q0.484375 -0.5625 1.265625 -0.890625q0.796875 -0.34375 1.859375 -0.34375q0.953125 0 1.6875 0.265625q0.734375 0.25 1.21875 0.765625q0.484375 0.5 0.796875 1.125q0.328125 0.609375 0.484375 1.5q0.171875 0.890625 0.234375 1.75q0.078125 0.84375 0.078125 1.953125l0 0.359375l-6.0 0l0 0.75q0 0.15625 0 0.484375q-0.03125 0.421875 -0.015625 0.890625q0.015625 0.46875 0.03125 0.921875q0.03125 0.4375 0.140625 0.84375q0.109375 0.390625 0.25 0.703125q0.15625 0.296875 0.4375 0.484375q0.28125 0.171875 0.65625 0.171875q0.46875 0 0.765625 -0.171875q0.3125 -0.1875 0.453125 -0.546875q0.140625 -0.375 0.203125 -0.734375q0.0625 -0.359375 0.078125 -0.921875l0 -0.625l2.96875 0l0 0.59375q-0.109375 2.40625 -1.1875 3.640625q-1.078125 1.234375 -3.3125 1.234375zm-1.46875 -9.21875l2.96875 0l0 -0.90625q-0.015625 -0.59375 -0.078125 -1.03125q-0.046875 -0.453125 -0.203125 -0.890625q-0.140625 -0.453125 -0.453125 -0.6875q-0.296875 -0.234375 -0.734375 -0.234375q-0.46875 0 -0.78125 0.25q-0.296875 0.234375 -0.453125 0.703125q-0.140625 0.46875 -0.203125 0.921875q-0.0625 0.4375 -0.0625 1.046875l0 0.828125zm8.167969 9.0l0 -15.0l3.0 0l0 1.703125q1.609375 -1.921875 3.734375 -1.921875q1.078125 0 1.578125 0.484375q0.515625 0.46875 0.6875 1.5q0.734375 -0.96875 1.59375 -1.46875q0.859375 -0.515625 2.15625 -0.515625q0.375 0 0.671875 0.078125q0.296875 0.078125 0.515625 0.1875q0.234375 0.109375 0.390625 0.328125q0.171875 0.203125 0.28125 0.390625q0.125 0.1875 0.1875 0.53125q0.078125 0.328125 0.109375 0.5625q0.046875 0.21875 0.0625 0.65625q0.03125 0.421875 0.03125 0.671875q0 0.25 0 0.734375q0 0.109375 0 0.171875l0 10.90625l-3.0 0l0 -10.953125q0 -0.046875 0 -0.1875q0 -0.375 -0.015625 -0.578125q-0.015625 -0.21875 -0.078125 -0.5q-0.0625 -0.28125 -0.234375 -0.40625q-0.15625 -0.125 -0.421875 -0.125q-0.453125 0 -0.921875 0.1875q-0.453125 0.171875 -0.703125 0.34375q-0.25 0.171875 -0.625 0.46875l0 11.75l-3.0 0l0 -10.890625q0 -0.0625 0 -0.203125q0 -0.328125 0 -0.484375q0 -0.171875 -0.046875 -0.4375q-0.03125 -0.265625 -0.109375 -0.390625q-0.0625 -0.140625 -0.21875 -0.234375q-0.15625 -0.109375 -0.375 -0.109375q-1.109375 0 -2.25 0.953125l0 11.796875l-3.0 0zm22.875 -2.25q0.484375 0 0.796875 -0.34375q0.328125 -0.359375 0.46875 -1.0q0.15625 -0.65625 0.203125 -1.296875q0.046875 -0.65625 0.046875 -1.515625q0 -0.625 0 -1.671875q0 -1.046875 0 -1.5625q0 -0.53125 -0.03125 -0.921875q-0.015625 -0.390625 -0.109375 -0.828125q-0.09375 -0.4375 -0.265625 -0.71875q-0.15625 -0.28125 -0.4375 -0.453125q-0.28125 -0.1875 -0.671875 -0.1875q-1.25 0 -2.25 0.59375l0 9.4375q1.15625 0.46875 2.25 0.46875zm0.75 2.46875q-0.921875 0 -1.625 -0.4375q-0.703125 -0.4375 -1.375 -1.140625l0 1.359375l-3.0 0l0 -20.984377l3.0 0l0 7.468752q0.421875 -0.4375 0.625 -0.640625q0.21875 -0.203125 0.625 -0.5q0.40625 -0.3125 0.828125 -0.4375q0.4375 -0.125 0.96875 -0.125q0.765625 0 1.359375 0.28125q0.59375 0.28125 0.984375 0.671875q0.390625 0.375 0.65625 1.109375q0.265625 0.71875 0.390625 1.3125q0.140625 0.578125 0.203125 1.578125q0.078125 1.0 0.09375 1.609375q0.015625 0.609375 0.015625 1.6875l0 0.203125q0 0.984375 -0.109375 1.90625q-0.09375 0.90625 -0.359375 1.859375q-0.265625 0.953125 -0.671875 1.640625q-0.390625 0.6875 -1.078125 1.140625q-0.671875 0.4375 -1.53125 0.4375zm6.2265625 -0.21875l0 -21.000002l3.0 0l0 21.000002l-3.0 0zm9.902344 0.21875q-1.09375 0 -1.890625 -0.375q-0.796875 -0.390625 -1.28125 -0.984375q-0.46875 -0.609375 -0.765625 -1.546875q-0.296875 -0.953125 -0.40625 -1.890625q-0.109375 -0.9375 -0.125 -2.203125q-0.046875 -0.984375 0 -1.96875q0.03125 -1.171875 0.15625 -2.078125q0.125 -0.90625 0.421875 -1.75q0.3125 -0.859375 0.796875 -1.40625q0.484375 -0.5625 1.265625 -0.890625q0.796875 -0.34375 1.859375 -0.34375q0.953125 0 1.6875 0.265625q0.734375 0.25 1.21875 0.765625q0.484375 0.5 0.796875 1.125q0.328125 0.609375 0.484375 1.5q0.171875 0.890625 0.234375 1.75q0.078125 0.84375 0.078125 1.953125l0 0.359375l-6.0 0l0 0.75q0 0.15625 0 0.484375q-0.03125 0.421875 -0.015625 0.890625q0.015625 0.46875 0.03125 0.921875q0.03125 0.4375 0.140625 0.84375q0.109375 0.390625 0.25 0.703125q0.15625 0.296875 0.4375 0.484375q0.28125 0.171875 0.65625 0.171875q0.46875 0 0.765625 -0.171875q0.3125 -0.1875 0.453125 -0.546875q0.140625 -0.375 0.203125 -0.734375q0.0625 -0.359375 0.078125 -0.921875l0 -0.625l2.96875 0l0 0.59375q-0.109375 2.40625 -1.1875 3.640625q-1.078125 1.234375 -3.3125 1.234375zm-1.46875 -9.21875l2.96875 0l0 -0.90625q-0.015625 -0.59375 -0.078125 -1.03125q-0.046875 -0.453125 -0.203125 -0.890625q-0.140625 -0.453125 -0.453125 -0.6875q-0.296875 -0.234375 -0.734375 -0.234375q-0.46875 0 -0.78125 0.25q-0.296875 0.234375 -0.453125 0.703125q-0.140625 0.46875 -0.203125 0.921875q-0.0625 0.4375 -0.0625 1.046875l0 0.828125zm13.167969 9.0l0 -21.000002l8.25 0l0 2.250002l-5.25 0l0 6.75l3.75 0l0 2.25l-3.75 0l0 9.75l-3.0 0zm13.730469 0.21875q-1.09375 0 -1.890625 -0.375q-0.796875 -0.390625 -1.28125 -0.984375q-0.46875 -0.609375 -0.765625 -1.546875q-0.296875 -0.953125 -0.40625 -1.890625q-0.109375 -0.9375 -0.125 -2.203125q-0.046875 -0.984375 0 -1.96875q0.03125 -1.171875 0.15625 -2.078125q0.125 -0.90625 0.421875 -1.75q0.3125 -0.859375 0.796875 -1.40625q0.484375 -0.5625 1.265625 -0.890625q0.796875 -0.34375 1.859375 -0.34375q0.953125 0 1.6875 0.265625q0.734375 0.25 1.21875 0.765625q0.484375 0.5 0.796875 1.125q0.328125 0.609375 0.484375 1.5q0.171875 0.890625 0.234375 1.75q0.078125 0.84375 0.078125 1.953125l0 0.359375l-6.0 0l0 0.75q0 0.15625 0 0.484375q-0.03125 0.421875 -0.015625 0.890625q0.015625 0.46875 0.03125 0.921875q0.03125 0.4375 0.140625 0.84375q0.109375 0.390625 0.25 0.703125q0.15625 0.296875 0.4375 0.484375q0.28125 0.171875 0.65625 0.171875q0.46875 0 0.765625 -0.171875q0.3125 -0.1875 0.453125 -0.546875q0.140625 -0.375 0.203125 -0.734375q0.0625 -0.359375 0.078125 -0.921875l0 -0.625l2.96875 0l0 0.59375q-0.109375 2.40625 -1.1875 3.640625q-1.078125 1.234375 -3.3125 1.234375zm-1.46875 -9.21875l2.96875 0l0 -0.90625q-0.015625 -0.59375 -0.078125 -1.03125q-0.046875 -0.453125 -0.203125 -0.890625q-0.140625 -0.453125 -0.453125 -0.6875q-0.296875 -0.234375 -0.734375 -0.234375q-0.46875 0 -0.78125 0.25q-0.296875 0.234375 -0.453125 0.703125q-0.140625 0.46875 -0.203125 0.921875q-0.0625 0.4375 -0.0625 1.046875l0 0.828125zm12.277344 6.75q0.3125 0 0.609375 -0.1875q0.3125 -0.1875 0.453125 -0.359375q0.15625 -0.1875 0.375 -0.46875q0.046875 -0.0625 0.0625 -0.09375l0 -4.140625q-0.1875 0.125 -0.625 0.40625q-0.421875 0.265625 -0.6875 0.4375q-0.25 0.15625 -0.625 0.46875q-0.359375 0.296875 -0.5625 0.578125q-0.1875 0.265625 -0.34375 0.671875q-0.15625 0.390625 -0.15625 0.828125q0 1.859375 1.5 1.859375zm-1.5 2.46875q-1.25 0 -2.125 -1.078125q-0.875 -1.09375 -0.875 -2.453125q0 -1.09375 0.359375 -1.984375q0.375 -0.890625 0.78125 -1.421875q0.421875 -0.53125 1.375 -1.09375q0.96875 -0.578125 1.453125 -0.78125q0.5 -0.21875 1.71875 -0.703125q0.203125 -0.078125 0.3125 -0.125l0 -1.078125q0 -1.140625 -0.3125 -1.765625q-0.3125 -0.625 -1.1875 -0.625q-0.765625 0 -1.109375 0.53125q-0.328125 0.53125 -0.375 1.46875q-0.015625 0.125 -0.015625 0.390625l-3.0 0q0.03125 -2.15625 1.203125 -3.4375q1.1875 -1.28125 3.296875 -1.28125q2.09375 0 3.296875 1.296875q1.203125 1.296875 1.203125 3.421875l0 6.75q0 2.34375 0.390625 3.75l-2.984375 0l-0.40625 -2.25q-0.234375 0.46875 -0.390625 0.734375q-0.140625 0.25 -0.421875 0.640625q-0.28125 0.375 -0.5625 0.578125q-0.28125 0.203125 -0.703125 0.359375q-0.421875 0.15625 -0.921875 0.15625zm12.738281 0q-1.765625 0 -2.578125 -0.90625q-0.796875 -0.90625 -0.8125 -2.734375l0 -9.328125l-1.5 0l0 -2.25l1.5 0l0 -5.250002l3.0 0l0 5.250002l2.25 0l0 2.25l-2.25 0l0 8.75q0 0.90625 0.234375 1.328125q0.25 0.421875 1.0 0.421875q0.328125 0 1.015625 -0.125l0 2.453125q-1.125 0.140625 -1.859375 0.140625zm6.1875 0q-0.984375 0 -1.578125 -0.703125q-0.59375 -0.703125 -0.59375 -1.734375l0 -12.78125l3.0 0l0 11.875q0 0.46875 0.28125 0.765625q0.28125 0.28125 0.75 0.28125q0.234375 0 0.46875 -0.046875q0.234375 -0.0625 0.46875 -0.203125q0.234375 -0.15625 0.359375 -0.234375q0.125 -0.09375 0.359375 -0.296875q0.25 -0.21875 0.3125 -0.265625l0 -11.875l3.0 0l0 15.0l-3.0 0l0 -1.625q-0.453125 0.390625 -0.65625 0.578125q-0.203125 0.171875 -0.625 0.46875q-0.421875 0.296875 -0.75 0.4375q-0.3125 0.125 -0.796875 0.234375q-0.484375 0.125 -1.0 0.125zm9.425781 -0.21875l0 -15.0l3.0 0l0 2.0q0.453125 -0.890625 1.328125 -1.546875q0.875 -0.671875 1.9375 -0.671875q0.03125 0 0.484375 0.046875l0 3.328125q-0.828125 -0.328125 -1.671875 -0.328125q-0.9375 0 -1.515625 0.5625q-0.5625 0.5625 -0.5625 1.484375l0 10.125l-3.0 0zm12.355469 0.21875q-1.09375 0 -1.890625 -0.375q-0.796875 -0.390625 -1.28125 -0.984375q-0.46875 -0.609375 -0.765625 -1.546875q-0.296875 -0.953125 -0.40625 -1.890625q-0.109375 -0.9375 -0.125 -2.203125q-0.046875 -0.984375 0 -1.96875q0.03125 -1.171875 0.15625 -2.078125q0.125 -0.90625 0.421875 -1.75q0.3125 -0.859375 0.796875 -1.40625q0.484375 -0.5625 1.265625 -0.890625q0.796875 -0.34375 1.859375 -0.34375q0.953125 0 1.6875 0.265625q0.734375 0.25 1.21875 0.765625q0.484375 0.5 0.796875 1.125q0.328125 0.609375 0.484375 1.5q0.171875 0.890625 0.234375 1.75q0.078125 0.84375 0.078125 1.953125l0 0.359375l-6.0 0l0 0.75q0 0.15625 0 0.484375q-0.03125 0.421875 -0.015625 0.890625q0.015625 0.46875 0.03125 0.921875q0.03125 0.4375 0.140625 0.84375q0.109375 0.390625 0.25 0.703125q0.15625 0.296875 0.4375 0.484375q0.28125 0.171875 0.65625 0.171875q0.46875 0 0.765625 -0.171875q0.3125 -0.1875 0.453125 -0.546875q0.140625 -0.375 0.203125 -0.734375q0.0625 -0.359375 0.078125 -0.921875l0 -0.625l2.96875 0l0 0.59375q-0.109375 2.40625 -1.1875 3.640625q-1.078125 1.234375 -3.3125 1.234375zm-1.46875 -9.21875l2.96875 0l0 -0.90625q-0.015625 -0.59375 -0.078125 -1.03125q-0.046875 -0.453125 -0.203125 -0.890625q-0.140625 -0.453125 -0.453125 -0.6875q-0.296875 -0.234375 -0.734375 -0.234375q-0.46875 0 -0.78125 0.25q-0.296875 0.234375 -0.453125 0.703125q-0.140625 0.46875 -0.203125 0.921875q-0.0625 0.4375 -0.0625 1.046875l0 0.828125zm12.105469 9.21875q-1.859375 0 -2.984375 -1.109375q-1.109375 -1.109375 -1.515625 -2.859375l2.25 -0.75q0.8125 2.25 2.25 2.25q0.71875 0 1.109375 -0.390625q0.390625 -0.390625 0.390625 -1.109375q0 -1.046875 -0.75 -1.734375l-3.0 -2.25q-0.5 -0.34375 -0.84375 -0.640625q-0.34375 -0.296875 -0.703125 -0.734375q-0.34375 -0.4375 -0.53125 -0.96875q-0.171875 -0.546875 -0.171875 -1.171875q0 -1.921875 1.21875 -2.9375q1.234375 -1.03125 3.28125 -1.03125q0.96875 0 1.75 0.3125q0.796875 0.3125 1.328125 0.875q0.53125 0.5625 0.875 1.25q0.34375 0.6875 0.546875 1.53125l-2.25 0.75q-0.171875 -0.453125 -0.34375 -0.765625q-0.15625 -0.328125 -0.4375 -0.703125q-0.265625 -0.375 -0.640625 -0.578125q-0.375 -0.203125 -0.828125 -0.203125q-0.71875 0 -1.109375 0.390625q-0.390625 0.390625 -0.390625 1.109375q0 0.703125 0.75 1.265625l3.0 2.25q0.5 0.390625 0.859375 0.765625q0.359375 0.375 0.6875 0.859375q0.34375 0.484375 0.515625 1.078125q0.1875 0.59375 0.1875 1.28125q0 1.921875 -1.234375 2.953125q-1.21875 1.015625 -3.265625 1.015625z" fill-rule="nonzero"></path></g></svg>

