<?xml version="1.0" standalone="yes"?>

<svg version="1.1" viewBox="0.0 0.0 814.4409448818898 196.45144356955382" fill="none" stroke="none" stroke-linecap="square" stroke-miterlimit="10" xmlns="http://www.w3.org/2000/svg" xmlns:xlink="http://www.w3.org/1999/xlink"><clipPath id="p.0"><path d="m0 0l814.4409 0l0 196.45145l-814.4409 0l0 -196.45145z" clip-rule="nonzero"></path></clipPath><g clip-path="url(#p.0)"><path fill="#000000" fill-opacity="0.0" d="m0 0l814.4409 0l0 196.45145l-814.4409 0z" fill-rule="nonzero"></path><path fill="#ffffff" d="m326.88452 57.412075l122.31494 0l0 122.31496l-122.31494 0z" fill-rule="nonzero"></path><path fill="#cbcbcb" d="m449.19946 57.412075l40.771667 -40.771656l0 122.314964l-40.771667 40.771652z" fill-rule="nonzero"></path><path fill="#ffffff" d="m326.88452 57.412075l40.771637 -40.771656l122.31497 0l-40.771667 40.771656z" fill-rule="nonzero"></path><path fill="#000000" fill-opacity="0.0" d="m326.88452 57.412075l40.771637 -40.771656l122.31497 0l0 122.314964l-40.771667 40.771652l-122.31494 0zm0 0l122.31494 0l40.771667 -40.771656m-40.771667 40.771656l0 122.31496" fill-rule="nonzero"></path><path stroke="#ff9900" stroke-width="1.0" stroke-linejoin="round" stroke-linecap="butt" d="m326.88452 57.412075l40.771637 -40.771656l122.31497 0l0 122.314964l-40.771667 40.771652l-122.31494 0zm0 0l122.31494 0l40.771667 -40.771656m-40.771667 40.771656l0 122.31496" fill-rule="nonzero"></path><path fill="#ff9900" d="m345.26074 130.28955l0 -28.0l4.0 0l0 12.0l7.0 0l0 -12.0l4.0 0l0 28.0l-4.0 0l0 -13.0l-7.0 0l0 13.0l-4.0 0zm29.0625 -1.59375q-1.390625 1.875 -4.609375 1.875q-3.21875 0 -4.609375 -1.875q-1.390625 -1.875 -1.390625 -5.40625l0 -6.0q0 -3.53125 1.390625 -5.40625q1.390625 -1.875 4.609375 -1.875q3.21875 0 4.609375 1.875q1.390625 1.875 1.390625 5.40625l0 6.0q0 3.53125 -1.390625 5.40625zm-5.359375 -1.53125q0.328125 0.125 0.75 0.125q0.421875 0 0.734375 -0.125q0.328125 -0.125 0.53125 -0.296875q0.21875 -0.1875 0.359375 -0.53125q0.140625 -0.359375 0.21875 -0.625q0.078125 -0.265625 0.109375 -0.765625q0.03125 -0.5 0.03125 -0.78125q0.015625 -0.296875 0.015625 -0.875l0 -6.0q0 -0.578125 -0.015625 -0.859375q0 -0.296875 -0.03125 -0.796875q-0.03125 -0.5 -0.109375 -0.765625q-0.078125 -0.265625 -0.21875 -0.609375q-0.140625 -0.359375 -0.359375 -0.53125q-0.203125 -0.1875 -0.53125 -0.3125q-0.3125 -0.125 -0.734375 -0.125q-0.421875 0 -0.75 0.125q-0.3125 0.125 -0.53125 0.3125q-0.203125 0.171875 -0.34375 0.53125q-0.140625 0.34375 -0.21875 0.609375q-0.078125 0.265625 -0.109375 0.765625q-0.03125 0.5 -0.046875 0.796875q0 0.28125 0 0.859375l0 6.0q0 0.578125 0 0.875q0.015625 0.28125 0.046875 0.78125q0.03125 0.5 0.109375 0.765625q0.078125 0.265625 0.21875 0.625q0.140625 0.34375 0.34375 0.53125q0.21875 0.171875 0.53125 0.296875zm15.578125 3.40625q-2.359375 0 -3.4375 -1.203125q-1.0625 -1.203125 -1.09375 -3.640625l0 -12.4375l-2.0 0l0 -3.0l2.0 0l0 -7.0l4.0 0l0 7.0l3.0 0l0 3.0l-3.0 0l0 11.671875q0 1.203125 0.328125 1.765625q0.328125 0.5625 1.328125 0.5625q0.4375 0 1.34375 -0.15625l0 3.25q-1.5 0.1875 -2.46875 0.1875zm12.390625 -3.28125q0.640625 0 1.0625 -0.46875q0.4375 -0.46875 0.625 -1.328125q0.203125 -0.875 0.265625 -1.734375q0.078125 -0.859375 0.078125 -2.0q0 -0.84375 -0.015625 -2.234375q0 -1.390625 0 -2.09375q0 -0.703125 -0.03125 -1.21875q-0.03125 -0.53125 -0.15625 -1.109375q-0.125 -0.578125 -0.34375 -0.953125q-0.203125 -0.375 -0.578125 -0.609375q-0.375 -0.25 -0.90625 -0.25q-1.65625 0 -3.0 0.796875l0 12.578125q1.546875 0.625 3.0 0.625zm1.0 3.28125q-1.21875 0 -2.15625 -0.578125q-0.9375 -0.578125 -1.84375 -1.515625l0 1.8125l-4.0 0l0 -27.984375l4.0 0l0 9.96875q0.5625 -0.59375 0.84375 -0.859375q0.28125 -0.265625 0.8125 -0.671875q0.546875 -0.40625 1.125 -0.5625q0.578125 -0.171875 1.28125 -0.171875q1.015625 0 1.8125 0.375q0.796875 0.359375 1.3125 0.875q0.515625 0.515625 0.875 1.484375q0.359375 0.96875 0.53125 1.75q0.1875 0.78125 0.28125 2.109375q0.09375 1.328125 0.109375 2.15625q0.015625 0.8125 0.015625 2.25l0 0.265625q0 1.3125 -0.140625 2.53125q-0.125 1.21875 -0.484375 2.484375q-0.34375 1.265625 -0.890625 2.1875q-0.53125 0.921875 -1.4375 1.515625q-0.890625 0.578125 -2.046875 0.578125zm18.515625 -1.875q-1.390625 1.875 -4.609375 1.875q-3.21875 0 -4.609375 -1.875q-1.390625 -1.875 -1.390625 -5.40625l0 -6.0q0 -3.53125 1.390625 -5.40625q1.390625 -1.875 4.609375 -1.875q3.21875 0 4.609375 1.875q1.390625 1.875 1.390625 5.40625l0 6.0q0 3.53125 -1.390625 5.40625zm-5.359375 -1.53125q0.328125 0.125 0.75 0.125q0.421875 0 0.734375 -0.125q0.328125 -0.125 0.53125 -0.296875q0.21875 -0.1875 0.359375 -0.53125q0.140625 -0.359375 0.21875 -0.625q0.078125 -0.265625 0.109375 -0.765625q0.03125 -0.5 0.03125 -0.78125q0.015625 -0.296875 0.015625 -0.875l0 -6.0q0 -0.578125 -0.015625 -0.859375q0 -0.296875 -0.03125 -0.796875q-0.03125 -0.5 -0.109375 -0.765625q-0.078125 -0.265625 -0.21875 -0.609375q-0.140625 -0.359375 -0.359375 -0.53125q-0.203125 -0.1875 -0.53125 -0.3125q-0.3125 -0.125 -0.734375 -0.125q-0.421875 0 -0.75 0.125q-0.3125 0.125 -0.53125 0.3125q-0.203125 0.171875 -0.34375 0.53125q-0.140625 0.34375 -0.21875 0.609375q-0.078125 0.265625 -0.109375 0.765625q-0.03125 0.5 -0.046875 0.796875q0 0.28125 0 0.859375l0 6.0q0 0.578125 0 0.875q0.015625 0.28125 0.046875 0.78125q0.03125 0.5 0.109375 0.765625q0.078125 0.265625 0.21875 0.625q0.140625 0.34375 0.34375 0.53125q0.21875 0.171875 0.53125 0.296875zm8.46875 3.125l4.0 -10.0l0 -0.40625l-4.0 -9.59375l3.859375 0l2.671875 7.640625l2.671875 -7.640625l3.796875 0l-4.0 9.59375l0 0.40625l4.0 10.0l-4.0 0l-2.375 -7.703125l-2.625 7.703125l-4.0 0z" fill-rule="nonzero"></path><path fill="#ffd966" d="m32.50656 108.92388l0 0c0 -42.07801 34.11097 -76.18897 76.18898 -76.18897l0 0c20.206573 0 39.58554 8.027027 53.873734 22.315235c14.288208 14.288204 22.315247 33.667164 22.315247 53.873737l0 0c0 42.07801 -34.110977 76.18897 -76.18898 76.18897l0 0c-42.07801 0 -76.18898 -34.110962 -76.18898 -76.18897z" fill-rule="nonzero"></path><path stroke="#000000" stroke-width="1.0" stroke-linejoin="round" stroke-linecap="butt" d="m32.50656 108.92388l0 0c0 -42.07801 34.11097 -76.18897 76.18898 -76.18897l0 0c20.206573 0 39.58554 8.027027 53.873734 22.315235c14.288208 14.288204 22.315247 33.667164 22.315247 53.873737l0 0c0 42.07801 -34.110977 76.18897 -76.18898 76.18897l0 0c-42.07801 0 -76.18898 -34.110962 -76.18898 -76.18897z" fill-rule="nonzero"></path><path fill="#000000" d="m74.490456 117.46388l0 -18.328125l-3.75 0l0 -2.671875l10.5 0l0 2.671875l-3.75 0l0 18.328125l-3.0 0zm8.1171875 0l0 -15.0l3.0 0l0 2.0q0.453125 -0.890625 1.328125 -1.546875q0.875 -0.671875 1.9375 -0.671875q0.03125 0 0.484375 0.046875l0 3.328125q-0.828125 -0.328125 -1.671875 -0.328125q-0.9375 0 -1.515625 0.5625q-0.5625 0.5625 -0.5625 1.484375l0 10.125l-3.0 0zm12.230469 -2.25q0.3125 0 0.609375 -0.1875q0.3125 -0.1875 0.453125 -0.359375q0.15625 -0.1875 0.375 -0.46875q0.046875 -0.0625 0.0625 -0.09375l0 -4.140625q-0.1875 0.125 -0.625 0.40625q-0.421875 0.265625 -0.6875 0.4375q-0.25 0.15625 -0.625 0.46875q-0.359375 0.296875 -0.5625 0.578125q-0.1875 0.265625 -0.34375 0.671875q-0.15625 0.390625 -0.15625 0.828125q0 1.859375 1.5 1.859375zm-1.5 2.46875q-1.25 0 -2.125 -1.078125q-0.875 -1.09375 -0.875 -2.453125q0 -1.09375 0.359375 -1.984375q0.375 -0.890625 0.78125 -1.421875q0.421875 -0.53125 1.375 -1.09375q0.96875 -0.578125 1.453125 -0.78125q0.5 -0.21875 1.71875 -0.703125q0.203125 -0.078125 0.3125 -0.125l0 -1.078125q0 -1.140625 -0.3125 -1.765625q-0.3125 -0.625 -1.1875 -0.625q-0.765625 0 -1.109375 0.53125q-0.328125 0.53125 -0.375 1.46875q-0.015625 0.125 -0.015625 0.390625l-3.0 0q0.03125 -2.15625 1.203125 -3.4375q1.1875 -1.28125 3.296875 -1.28125q2.09375 0 3.296875 1.296875q1.203125 1.296875 1.203125 3.421875l0 6.75q0 2.34375 0.390625 3.75l-2.984375 0l-0.40625 -2.25q-0.234375 0.46875 -0.390625 0.734375q-0.140625 0.25 -0.421875 0.640625q-0.28125 0.375 -0.5625 0.578125q-0.28125 0.203125 -0.703125 0.359375q-0.421875 0.15625 -0.921875 0.15625zm8.707031 -17.46875l0 -3.0l3.0 0l0 3.0l-3.0 0zm0 17.25l0 -15.0l3.0 0l0 15.0l-3.0 0zm5.875 0l0 -15.0l3.0 0l0 1.609375q0.671875 -0.609375 1.09375 -0.921875q0.421875 -0.328125 1.15625 -0.609375q0.75 -0.296875 1.59375 -0.296875q0.953125 0 1.546875 0.703125q0.609375 0.703125 0.609375 1.734375l0 12.78125l-3.0 0l0 -11.25q0 -0.78125 -0.234375 -1.140625q-0.21875 -0.359375 -0.890625 -0.359375q-0.390625 0 -0.78125 0.15625q-0.375 0.15625 -0.5625 0.296875q-0.1875 0.125 -0.53125 0.421875l0 11.875l-3.0 0zm11.75 -17.25l0 -3.0l3.0 0l0 3.0l-3.0 0zm0 17.25l0 -15.0l3.0 0l0 15.0l-3.0 0zm5.875 0l0 -15.0l3.0000076 0l0 1.609375q0.671875 -0.609375 1.09375 -0.921875q0.421875 -0.328125 1.15625 -0.609375q0.75 -0.296875 1.59375 -0.296875q0.953125 0 1.546875 0.703125q0.609375 0.703125 0.609375 1.734375l0 12.78125l-3.0 0l0 -11.25q0 -0.78125 -0.234375 -1.140625q-0.21875 -0.359375 -0.890625 -0.359375q-0.390625 0 -0.78125 0.15625q-0.375 0.15625 -0.5625 0.296875q-0.1875 0.125 -0.53125 0.421875l0 11.875l-3.0000076 0zm13.750008 -9.75q0 3.1875 1.875 3.1875q1.875 0 1.875 -3.1875q0 -0.640625 -0.09375 -1.1875q-0.078125 -0.546875 -0.28125 -1.0625q-0.1875 -0.53125 -0.578125 -0.828125q-0.390625 -0.296875 -0.921875 -0.296875q-0.5625 0 -0.953125 0.296875q-0.375 0.296875 -0.578125 0.828125q-0.1875 0.515625 -0.265625 1.0625q-0.078125 0.546875 -0.078125 1.1875zm2.625 12.03125q0.3125 0 0.5625 -0.015625q0.25 -0.015625 0.578125 -0.046875q0.328125 -0.03125 0.5625 -0.109375q0.25 -0.078125 0.46875 -0.203125q0.21875 -0.109375 0.328125 -0.3125q0.125 -0.1875 0.125 -0.4375q0 -1.25 -2.40625 -1.53125l-2.46875 -0.296875q-0.46875 0.328125 -0.796875 0.953125q-0.3125 0.625 -0.3125 1.296875q0 0.1875 0.125 0.328125q0.140625 0.140625 0.390625 0.203125q0.25 0.078125 0.515625 0.125q0.265625 0.046875 0.625 0.046875q0.359375 0.015625 0.609375 0.015625q0.265625 0 0.609375 -0.015625q0.34375 0 0.484375 0zm0 2.203125q-0.5625 0 -0.921875 0q-0.34375 0 -0.953125 -0.03125q-0.609375 -0.015625 -1.03125 -0.09375q-0.40625 -0.0625 -0.9375 -0.15625q-0.515625 -0.09375 -0.875 -0.265625q-0.34375 -0.15625 -0.65625 -0.390625q-0.3125 -0.21875 -0.46875 -0.546875q-0.15625 -0.3125 -0.15625 -0.71875q0 -1.171875 0.625 -2.0q0.625 -0.828125 1.625 -1.328125q-0.609375 -0.15625 -1.0625 -0.484375q-0.4375 -0.34375 -0.4375 -0.828125q0 -0.203125 0.046875 -0.421875q0.046875 -0.21875 0.09375 -0.390625q0.0625 -0.1875 0.1875 -0.421875q0.140625 -0.234375 0.203125 -0.375q0.078125 -0.140625 0.25 -0.375q0.1875 -0.234375 0.25 -0.328125q0.0625 -0.09375 0.25 -0.3125q0.1875 -0.234375 0.21875 -0.265625q-1.5 -1.78125 -1.5 -4.5q0 -1.5625 0.484375 -2.78125q0.5 -1.21875 1.53125 -1.953125q1.03125 -0.734375 2.484375 -0.734375q0.828125 0 1.4375 0.234375q0.625 0.234375 1.015625 0.59375q0.40625 0.359375 0.78125 0.953125q0.890625 -1.65625 2.53125 -1.765625q0.03125 0 0.0625 0q0.03125 0 0.078125 0q0.0625 0 0.09375 0l0 2.453125q-0.0625 0 -0.1875 0q-0.515625 0 -0.78125 0.015625q-0.25 0 -0.5625 0.09375q-0.3125 0.09375 -0.5 0.28125q0.203125 0.453125 0.359375 1.21875q0.171875 0.75 0.171875 1.390625q0 1.5625 -0.484375 2.78125q-0.46875 1.203125 -1.515625 1.9375q-1.03125 0.71875 -2.5 0.71875l-1.515625 -0.171875q-0.03125 0.046875 -0.125 0.203125q-0.09375 0.140625 -0.140625 0.234375q-0.046875 0.09375 -0.09375 0.25q-0.046875 0.140625 -0.046875 0.265625q0 0.3125 0.28125 0.53125q0.296875 0.203125 0.8125 0.296875q0.515625 0.09375 0.984375 0.140625q0.484375 0.046875 1.0625 0.078125q0.59375 0.03125 0.8125 0.0625q0.671875 0.09375 1.1875 0.21875q0.53125 0.125 1.0625 0.359375q0.546875 0.234375 0.890625 0.5625q0.359375 0.328125 0.59375 0.84375q0.234375 0.515625 0.234375 1.1875q0 0.828125 -0.296875 1.46875q-0.28125 0.640625 -0.765625 1.0625q-0.484375 0.421875 -1.171875 0.6875q-0.671875 0.28125 -1.421875 0.390625q-0.75 0.125 -1.59375 0.125z" fill-rule="nonzero"></path><path fill="#ffd966" d="m203.3084 120.06562l24.141739 -24.141739l0 12.070869l72.4252 0l0 24.141739l-72.4252 0l0 12.070862z" fill-rule="nonzero"></path><path stroke="#000000" stroke-width="1.0" stroke-linejoin="round" stroke-linecap="butt" d="m203.3084 120.06562l24.141739 -24.141739l0 12.070869l72.4252 0l0 24.141739l-72.4252 0l0 12.070862z" fill-rule="nonzero"></path><path fill="#ffd966" d="m529.32416 120.06562l24.141724 -24.141739l0 12.070869l72.42517 0l0 24.141739l-72.42517 0l0 12.070862z" fill-rule="nonzero"></path><path stroke="#000000" stroke-width="1.0" stroke-linejoin="round" stroke-linecap="butt" d="m529.32416 120.06562l24.141724 -24.141739l0 12.070869l72.42517 0l0 24.141739l-72.42517 0l0 12.070862z" fill-rule="nonzero"></path><path fill="#000000" fill-opacity="0.0" d="m184.88452 4.4881887l157.19684 0l0 67.055115l-157.19684 0z" fill-rule="nonzero"></path><path fill="#efefef" d="m199.88452 28.20819l2.0 0q5.0 0 5.0 -5.0q0 -0.828125 -0.203125 -1.453125q-0.203125 -0.640625 -0.484375 -1.0625q-0.28125 -0.421875 -0.859375 -0.703125q-0.5625 -0.296875 -1.03125 -0.453125q-0.46875 -0.15625 -1.34375 -0.21875q-0.859375 -0.078125 -1.4375 -0.09375q-0.578125 -0.015625 -1.640625 -0.015625l0 9.0zm0 13.0l2.0 0q2.59375 0 3.796875 -1.1875q1.203125 -1.203125 1.203125 -3.8125q0 -2.609375 -1.203125 -3.796875q-1.203125 -1.203125 -3.796875 -1.203125l-2.0 0l0 10.0zm-4.0 3.0l0 -28.0l6.0 0q1.9375 0 3.46875 0.40625q1.53125 0.40625 2.671875 1.234375q1.15625 0.828125 1.765625 2.1875q0.625 1.359375 0.625 3.171875q0 2.625 -1.109375 4.0q-1.109375 1.359375 -3.421875 2.0q2.5 0.828125 3.75 2.4375q1.25 1.59375 1.25 4.5625q0 3.703125 -2.15625 5.859375q-2.140625 2.140625 -5.84375 2.140625l-7.0 0zm17.90625 -23.0l0 -4.0l4.0 0l0 4.0l-4.0 0zm0 23.0l0 -20.0l4.0 0l0 20.0l-4.0 0zm7.84375 0l0 -28.0l4.0 0l0 28.0l-4.0 0zm7.578125 0l0 -28.0l4.0 0l0 28.0l-4.0 0zm7.734375 -23.0l0 -4.0l4.0 0l0 4.0l-4.0 0zm0 23.0l0 -20.0l4.0 0l0 20.0l-4.0 0zm18.0625 -1.59375q-1.390625 1.875 -4.609375 1.875q-3.21875 0 -4.609375 -1.875q-1.390625 -1.875 -1.390625 -5.40625l0 -6.0q0 -3.53125 1.390625 -5.40625q1.390625 -1.875 4.609375 -1.875q3.21875 0 4.609375 1.875q1.390625 1.875 1.390625 5.40625l0 6.0q0 3.53125 -1.390625 5.40625zm-5.359375 -1.53125q0.328125 0.125 0.75 0.125q0.421875 0 0.734375 -0.125q0.328125 -0.125 0.53125 -0.296875q0.21875 -0.1875 0.359375 -0.53125q0.140625 -0.359375 0.21875 -0.625q0.078125 -0.265625 0.109375 -0.765625q0.03125 -0.5 0.03125 -0.78125q0.015625 -0.296875 0.015625 -0.875l0 -6.0q0 -0.578125 -0.015625 -0.859375q0 -0.296875 -0.03125 -0.796875q-0.03125 -0.5 -0.109375 -0.765625q-0.078125 -0.265625 -0.21875 -0.609375q-0.140625 -0.359375 -0.359375 -0.53125q-0.203125 -0.1875 -0.53125 -0.3125q-0.3125 -0.125 -0.734375 -0.125q-0.421875 0 -0.75 0.125q-0.3125 0.125 -0.53125 0.3125q-0.203125 0.171875 -0.34375 0.53125q-0.140625 0.34375 -0.21875 0.609375q-0.078125 0.265625 -0.109375 0.765625q-0.03125 0.5 -0.046875 0.796875q0 0.28125 0 0.859375l0 6.0q0 0.578125 0 0.875q0.015625 0.28125 0.046875 0.78125q0.03125 0.5 0.109375 0.765625q0.078125 0.265625 0.21875 0.625q0.140625 0.34375 0.34375 0.53125q0.21875 0.171875 0.53125 0.296875zm10.03125 3.125l0 -20.0l4.0 0l0 2.15625q0.890625 -0.8125 1.453125 -1.234375q0.5625 -0.4375 1.546875 -0.8125q1.0 -0.390625 2.125 -0.390625q1.28125 0 2.078125 0.9375q0.796875 0.9375 0.796875 2.296875l0 17.046875l-4.0 0l0 -15.0q0 -1.046875 -0.296875 -1.515625q-0.296875 -0.484375 -1.203125 -0.484375q-0.515625 0 -1.03125 0.21875q-0.5 0.203125 -0.75 0.390625q-0.25 0.171875 -0.71875 0.5625l0 15.828125l-4.0 0zm20.75 0.28125q-2.46875 0 -3.96875 -1.46875q-1.484375 -1.46875 -2.03125 -3.8125l3.0 -1.0q1.078125 3.0 3.0 3.0q0.953125 0 1.46875 -0.515625q0.53125 -0.53125 0.53125 -1.484375q0 -1.390625 -1.0 -2.3125l-4.0 -3.0q-0.671875 -0.453125 -1.125 -0.84375q-0.453125 -0.40625 -0.921875 -0.984375q-0.46875 -0.578125 -0.71875 -1.296875q-0.234375 -0.71875 -0.234375 -1.5625q0 -2.5625 1.625 -3.921875q1.640625 -1.359375 4.375 -1.359375q1.296875 0 2.34375 0.421875q1.046875 0.40625 1.75 1.15625q0.71875 0.75 1.171875 1.671875q0.46875 0.90625 0.734375 2.03125l-3.0 1.0q-0.21875 -0.59375 -0.4375 -1.015625q-0.21875 -0.4375 -0.59375 -0.9375q-0.359375 -0.5 -0.859375 -0.765625q-0.5 -0.28125 -1.109375 -0.28125q-0.953125 0 -1.484375 0.53125q-0.515625 0.515625 -0.515625 1.46875q0 0.9375 1.0 1.6875l4.0 3.0q0.671875 0.53125 1.140625 1.03125q0.484375 0.484375 0.9375 1.140625q0.453125 0.640625 0.6875 1.4375q0.234375 0.796875 0.234375 1.703125q0 2.5625 -1.640625 3.921875q-1.625 1.359375 -4.359375 1.359375zm25.171875 -1.875q-1.390625 1.875 -4.609375 1.875q-3.21875 0 -4.609375 -1.875q-1.390625 -1.875 -1.390625 -5.40625l0 -6.0q0 -3.53125 1.390625 -5.40625q1.390625 -1.875 4.609375 -1.875q3.21875 0 4.609375 1.875q1.390625 1.875 1.390625 5.40625l0 6.0q0 3.53125 -1.390625 5.40625zm-5.359375 -1.53125q0.328125 0.125 0.75 0.125q0.421875 0 0.734375 -0.125q0.328125 -0.125 0.53125 -0.296875q0.21875 -0.1875 0.359375 -0.53125q0.140625 -0.359375 0.21875 -0.625q0.078125 -0.265625 0.109375 -0.765625q0.03125 -0.5 0.03125 -0.78125q0.015625 -0.296875 0.015625 -0.875l0 -6.0q0 -0.578125 -0.015625 -0.859375q0 -0.296875 -0.03125 -0.796875q-0.03125 -0.5 -0.109375 -0.765625q-0.078125 -0.265625 -0.21875 -0.609375q-0.140625 -0.359375 -0.359375 -0.53125q-0.203125 -0.1875 -0.53125 -0.3125q-0.3125 -0.125 -0.734375 -0.125q-0.421875 0 -0.75 0.125q-0.3125 0.125 -0.53125 0.3125q-0.203125 0.171875 -0.34375 0.53125q-0.140625 0.34375 -0.21875 0.609375q-0.078125 0.265625 -0.109375 0.765625q-0.03125 0.5 -0.046875 0.796875q0 0.28125 0 0.859375l0 6.0q0 0.578125 0 0.875q0.015625 0.28125 0.046875 0.78125q0.03125 0.5 0.109375 0.765625q0.078125 0.265625 0.21875 0.625q0.140625 0.34375 0.34375 0.53125q0.21875 0.171875 0.53125 0.296875zm11.078125 3.125l0 -17.0l-2.0 0l0 -3.0l2.0 0l0 -0.765625q0 -1.265625 0.09375 -2.140625q0.09375 -0.890625 0.375 -1.703125q0.296875 -0.828125 0.78125 -1.3125q0.5 -0.5 1.3125 -0.78125q0.828125 -0.296875 1.96875 -0.296875q0.96875 0 2.46875 0.1875l0 2.96875q-0.15625 -0.015625 -0.640625 -0.078125q-0.484375 -0.078125 -0.703125 -0.078125q-1.0 0 -1.328125 0.640625q-0.328125 0.625 -0.328125 1.859375l0 1.5l3.0 0l0 3.0l-3.0 0l0 17.0l-4.0 0z" fill-rule="nonzero"></path><path fill="#efefef" d="m195.88452 82.20819l0 -28.0l11.0 0l0 3.0l-7.0 0l0 9.0l5.0 0l0 3.0l-5.0 0l0 13.0l-4.0 0zm18.3125 0.28125q-1.453125 0 -2.53125 -0.5q-1.0625 -0.5 -1.703125 -1.296875q-0.625 -0.8125 -1.015625 -2.0625q-0.390625 -1.265625 -0.546875 -2.515625q-0.140625 -1.265625 -0.171875 -2.9375q-0.046875 -1.3125 0 -2.625q0.046875 -1.5625 0.203125 -2.765625q0.171875 -1.21875 0.578125 -2.359375q0.40625 -1.140625 1.046875 -1.875q0.65625 -0.734375 1.703125 -1.171875q1.0625 -0.453125 2.46875 -0.453125q1.28125 0 2.25 0.34375q0.984375 0.328125 1.625 1.015625q0.65625 0.671875 1.078125 1.5q0.4375 0.828125 0.65625 2.015625q0.21875 1.171875 0.296875 2.3125q0.09375 1.140625 0.09375 2.625l0 0.46875l-8.0 0l0 1.0q0 0.203125 0 0.640625q-0.03125 0.578125 -0.015625 1.203125q0.03125 0.609375 0.0625 1.203125q0.03125 0.59375 0.171875 1.140625q0.140625 0.53125 0.34375 0.9375q0.203125 0.40625 0.5625 0.640625q0.375 0.234375 0.875 0.234375q0.625 0 1.03125 -0.234375q0.40625 -0.25 0.59375 -0.734375q0.203125 -0.484375 0.28125 -0.96875q0.078125 -0.484375 0.09375 -1.21875l0 -0.84375l3.96875 0l0 0.796875q-0.140625 3.203125 -1.578125 4.84375q-1.4375 1.640625 -4.421875 1.640625zm-1.96875 -12.28125l3.96875 0l0 -1.203125q-0.015625 -0.796875 -0.09375 -1.390625q-0.078125 -0.59375 -0.28125 -1.1875q-0.1875 -0.59375 -0.59375 -0.90625q-0.40625 -0.3125 -1.0 -0.3125q-0.609375 0 -1.03125 0.328125q-0.40625 0.328125 -0.609375 0.953125q-0.1875 0.609375 -0.265625 1.203125q-0.078125 0.59375 -0.09375 1.421875l0 1.09375zm16.375 9.0q0.421875 0 0.8125 -0.25q0.40625 -0.25 0.609375 -0.484375q0.203125 -0.234375 0.5 -0.625q0.046875 -0.078125 0.078125 -0.109375l0 -5.53125q-0.25 0.171875 -0.828125 0.53125q-0.578125 0.359375 -0.921875 0.59375q-0.34375 0.21875 -0.828125 0.625q-0.484375 0.390625 -0.75 0.765625q-0.265625 0.359375 -0.46875 0.890625q-0.203125 0.53125 -0.203125 1.109375q0 2.484375 2.0 2.484375zm-2.0 3.28125q-1.671875 0 -2.84375 -1.4375q-1.15625 -1.453125 -1.15625 -3.265625q0 -1.453125 0.484375 -2.640625q0.5 -1.1875 1.046875 -1.890625q0.546875 -0.71875 1.828125 -1.46875q1.28125 -0.765625 1.9375 -1.046875q0.65625 -0.28125 2.28125 -0.921875q0.28125 -0.109375 0.421875 -0.171875l0 -1.4375q0 -1.515625 -0.421875 -2.34375q-0.421875 -0.84375 -1.578125 -0.84375q-1.03125 0 -1.484375 0.71875q-0.4375 0.703125 -0.5 1.953125q-0.015625 0.171875 -0.015625 0.515625l-4.0 0q0.03125 -2.875 1.609375 -4.578125q1.578125 -1.703125 4.390625 -1.703125q2.796875 0 4.390625 1.734375q1.609375 1.71875 1.609375 4.546875l0 9.0q0 3.125 0.515625 5.0l-3.984375 0l-0.53125 -3.0q-0.3125 0.625 -0.515625 0.96875q-0.1875 0.34375 -0.5625 0.859375q-0.375 0.5 -0.75 0.78125q-0.375 0.265625 -0.9375 0.46875q-0.5625 0.203125 -1.234375 0.203125zm16.984375 0q-2.359375 0 -3.4375 -1.203125q-1.0625 -1.203125 -1.09375 -3.640625l0 -12.4375l-2.0 0l0 -3.0l2.0 0l0 -7.0l4.0 0l0 7.0l3.0 0l0 3.0l-3.0 0l0 11.671875q0 1.203125 0.328125 1.765625q0.328125 0.5625 1.328125 0.5625q0.4375 0 1.34375 -0.15625l0 3.25q-1.5 0.1875 -2.46875 0.1875zm8.25 0q-1.3125 0 -2.109375 -0.921875q-0.796875 -0.9375 -0.796875 -2.3125l0 -17.046875l4.0 0l0 15.828125q0 0.625 0.375 1.015625q0.390625 0.390625 1.0 0.390625q0.328125 0 0.640625 -0.078125q0.3125 -0.078125 0.609375 -0.265625q0.3125 -0.203125 0.484375 -0.3125q0.171875 -0.125 0.484375 -0.40625q0.328125 -0.28125 0.40625 -0.34375l0 -15.828125l4.0 0l0 20.0l-4.0 0l0 -2.15625q-0.59375 0.515625 -0.875 0.75q-0.265625 0.234375 -0.828125 0.640625q-0.5625 0.390625 -1.0 0.578125q-0.421875 0.171875 -1.0625 0.3125q-0.640625 0.15625 -1.328125 0.15625zm12.5625 -0.28125l0 -20.0l4.0 0l0 2.671875q0.609375 -1.1875 1.765625 -2.0625q1.171875 -0.890625 2.59375 -0.890625q0.046875 0 0.640625 0.0625l0 4.421875q-1.109375 -0.4375 -2.21875 -0.4375q-1.25 0 -2.015625 0.75q-0.765625 0.75 -0.765625 1.984375l0 13.5l-4.0 0zm16.484375 0.28125q-1.453125 0 -2.53125 -0.5q-1.0625 -0.5 -1.703125 -1.296875q-0.625 -0.8125 -1.015625 -2.0625q-0.390625 -1.265625 -0.546875 -2.515625q-0.140625 -1.265625 -0.171875 -2.9375q-0.046875 -1.3125 0 -2.625q0.046875 -1.5625 0.203125 -2.765625q0.171875 -1.21875 0.578125 -2.359375q0.40625 -1.140625 1.046875 -1.875q0.65625 -0.734375 1.703125 -1.171875q1.0625 -0.453125 2.46875 -0.453125q1.28125 0 2.25 0.34375q0.984375 0.328125 1.625 1.015625q0.65625 0.671875 1.078125 1.5q0.4375 0.828125 0.65625 2.015625q0.21875 1.171875 0.296875 2.3125q0.09375 1.140625 0.09375 2.625l0 0.46875l-8.0 0l0 1.0q0 0.203125 0 0.640625q-0.03125 0.578125 -0.015625 1.203125q0.03125 0.609375 0.0625 1.203125q0.03125 0.59375 0.171875 1.140625q0.140625 0.53125 0.34375 0.9375q0.203125 0.40625 0.5625 0.640625q0.375 0.234375 0.875 0.234375q0.625 0 1.03125 -0.234375q0.40625 -0.25 0.59375 -0.734375q0.203125 -0.484375 0.28125 -0.96875q0.078125 -0.484375 0.09375 -1.21875l0 -0.84375l3.96875 0l0 0.796875q-0.140625 3.203125 -1.578125 4.84375q-1.4375 1.640625 -4.421875 1.640625zm-1.96875 -12.28125l3.96875 0l0 -1.203125q-0.015625 -0.796875 -0.09375 -1.390625q-0.078125 -0.59375 -0.28125 -1.1875q-0.1875 -0.59375 -0.59375 -0.90625q-0.40625 -0.3125 -1.0 -0.3125q-0.609375 0 -1.03125 0.328125q-0.40625 0.328125 -0.609375 0.953125q-0.1875 0.609375 -0.265625 1.203125q-0.078125 0.59375 -0.09375 1.421875l0 1.09375zm16.140625 12.28125q-2.46875 0 -3.96875 -1.46875q-1.484375 -1.46875 -2.03125 -3.8125l3.0 -1.0q1.078125 3.0 3.0 3.0q0.953125 0 1.46875 -0.515625q0.53125 -0.53125 0.53125 -1.484375q0 -1.390625 -1.0 -2.3125l-4.0 -3.0q-0.671875 -0.453125 -1.125 -0.84375q-0.453125 -0.40625 -0.921875 -0.984375q-0.46875 -0.578125 -0.71875 -1.296875q-0.234375 -0.71875 -0.234375 -1.5625q0 -2.5625 1.625 -3.921875q1.640625 -1.359375 4.375 -1.359375q1.296875 0 2.34375 0.421875q1.046875 0.40625 1.75 1.15625q0.71875 0.75 1.171875 1.671875q0.46875 0.90625 0.734375 2.03125l-3.0 1.0q-0.21875 -0.59375 -0.4375 -1.015625q-0.21875 -0.4375 -0.59375 -0.9375q-0.359375 -0.5 -0.859375 -0.765625q-0.5 -0.28125 -1.109375 -0.28125q-0.953125 0 -1.484375 0.53125q-0.515625 0.515625 -0.515625 1.46875q0 0.9375 1.0 1.6875l4.0 3.0q0.671875 0.53125 1.140625 1.03125q0.484375 0.484375 0.9375 1.140625q0.453125 0.640625 0.6875 1.4375q0.234375 0.796875 0.234375 1.703125q0 2.5625 -1.640625 3.921875q-1.625 1.359375 -4.359375 1.359375z" fill-rule="nonzero"></path><path fill="#000000" fill-opacity="0.0" d="m499.0105 4.4881887l157.19684 0l0 67.055115l-157.19684 0z" fill-rule="nonzero"></path><path fill="#efefef" d="m512.9949 44.20819l0 -24.4375l-5.0 0l0 -3.5625l14.0 0l0 3.5625l-5.0 0l0 24.4375l-4.0 0zm10.8125 0l0 -28.0l4.0 0l0 10.15625q0.890625 -0.8125 1.453125 -1.234375q0.5625 -0.4375 1.546875 -0.8125q1.0 -0.390625 2.125 -0.390625q1.28125 0 2.078125 0.9375q0.796875 0.9375 0.796875 2.296875l0 17.046875l-4.0 0l0 -15.0q0 -1.03125 -0.265625 -1.515625q-0.25 -0.484375 -1.109375 -0.484375q-1.21875 0 -2.625 1.171875l0 15.828125l-4.0 0zm25.734375 -1.59375q-1.390625 1.875 -4.609375 1.875q-3.21875 0 -4.609375 -1.875q-1.390625 -1.875 -1.390625 -5.40625l0 -6.0q0 -3.53125 1.390625 -5.40625q1.390625 -1.875 4.609375 -1.875q3.21875 0 4.609375 1.875q1.390625 1.875 1.390625 5.40625l0 6.0q0 3.53125 -1.390625 5.40625zm-5.359375 -1.53125q0.328125 0.125 0.75 0.125q0.421875 0 0.734375 -0.125q0.328125 -0.125 0.53125 -0.296875q0.21875 -0.1875 0.359375 -0.53125q0.140625 -0.359375 0.21875 -0.625q0.078125 -0.265625 0.109375 -0.765625q0.03125 -0.5 0.03125 -0.78125q0.015625 -0.296875 0.015625 -0.875l0 -6.0q0 -0.578125 -0.015625 -0.859375q0 -0.296875 -0.03125 -0.796875q-0.03125 -0.5 -0.109375 -0.765625q-0.078125 -0.265625 -0.21875 -0.609375q-0.140625 -0.359375 -0.359375 -0.53125q-0.203125 -0.1875 -0.53125 -0.3125q-0.3125 -0.125 -0.734375 -0.125q-0.421875 0 -0.75 0.125q-0.3125 0.125 -0.53125 0.3125q-0.203125 0.171875 -0.34375 0.53125q-0.140625 0.34375 -0.21875 0.609375q-0.078125 0.265625 -0.109375 0.765625q-0.03125 0.5 -0.046875 0.796875q0 0.28125 0 0.859375l0 6.0q0 0.578125 0 0.875q0.015625 0.28125 0.046875 0.78125q0.03125 0.5 0.109375 0.765625q0.078125 0.265625 0.21875 0.625q0.140625 0.34375 0.34375 0.53125q0.21875 0.171875 0.53125 0.296875zm12.890625 3.40625q-1.3125 0 -2.109375 -0.921875q-0.796875 -0.9375 -0.796875 -2.3125l0 -17.046875l4.0 0l0 15.828125q0 0.625 0.375 1.015625q0.390625 0.390625 1.0 0.390625q0.328125 0 0.640625 -0.078125q0.3125 -0.078125 0.609375 -0.265625q0.3125 -0.203125 0.484375 -0.3125q0.171875 -0.125 0.484375 -0.40625q0.328125 -0.28125 0.40625 -0.34375l0 -15.828125l4.0 0l0 20.0l-4.0 0l0 -2.15625q-0.59375 0.515625 -0.875 0.75q-0.265625 0.234375 -0.828125 0.640625q-0.5625 0.390625 -1.0 0.578125q-0.421875 0.171875 -1.0625 0.3125q-0.640625 0.15625 -1.328125 0.15625zm17.8125 0q-2.46875 0 -3.96875 -1.46875q-1.484375 -1.46875 -2.03125 -3.8125l3.0 -1.0q1.078125 3.0 3.0 3.0q0.953125 0 1.46875 -0.515625q0.53125 -0.53125 0.53125 -1.484375q0 -1.390625 -1.0 -2.3125l-4.0 -3.0q-0.671875 -0.453125 -1.125 -0.84375q-0.453125 -0.40625 -0.921875 -0.984375q-0.46875 -0.578125 -0.71875 -1.296875q-0.234375 -0.71875 -0.234375 -1.5625q0 -2.5625 1.625 -3.921875q1.640625 -1.359375 4.375 -1.359375q1.296875 0 2.34375 0.421875q1.046875 0.40625 1.75 1.15625q0.71875 0.75 1.171875 1.671875q0.46875 0.90625 0.734375 2.03125l-3.0 1.0q-0.21875 -0.59375 -0.4375 -1.015625q-0.21875 -0.4375 -0.59375 -0.9375q-0.359375 -0.5 -0.859375 -0.765625q-0.5 -0.28125 -1.109375 -0.28125q-0.953125 0 -1.484375 0.53125q-0.515625 0.515625 -0.515625 1.46875q0 0.9375 1.0 1.6875l4.0 3.0q0.671875 0.53125 1.140625 1.03125q0.484375 0.484375 0.9375 1.140625q0.453125 0.640625 0.6875 1.4375q0.234375 0.796875 0.234375 1.703125q0 2.5625 -1.640625 3.921875q-1.625 1.359375 -4.359375 1.359375zm13.921875 -3.28125q0.421875 0 0.8125 -0.25q0.40625 -0.25 0.609375 -0.484375q0.203125 -0.234375 0.5 -0.625q0.046875 -0.078125 0.078125 -0.109375l0 -5.53125q-0.25 0.171875 -0.828125 0.53125q-0.578125 0.359375 -0.921875 0.59375q-0.34375 0.21875 -0.828125 0.625q-0.484375 0.390625 -0.75 0.765625q-0.265625 0.359375 -0.46875 0.890625q-0.203125 0.53125 -0.203125 1.109375q0 2.484375 2.0 2.484375zm-2.0 3.28125q-1.671875 0 -2.84375 -1.4375q-1.15625 -1.453125 -1.15625 -3.265625q0 -1.453125 0.484375 -2.640625q0.5 -1.1875 1.046875 -1.890625q0.546875 -0.71875 1.828125 -1.46875q1.28125 -0.765625 1.9375 -1.046875q0.65625 -0.28125 2.28125 -0.921875q0.28125 -0.109375 0.421875 -0.171875l0 -1.4375q0 -1.515625 -0.421875 -2.34375q-0.421875 -0.84375 -1.578125 -0.84375q-1.03125 0 -1.484375 0.71875q-0.4375 0.703125 -0.5 1.953125q-0.015625 0.171875 -0.015625 0.515625l-4.0 0q0.03125 -2.875 1.609375 -4.578125q1.578125 -1.703125 4.390625 -1.703125q2.796875 0 4.390625 1.734375q1.609375 1.71875 1.609375 4.546875l0 9.0q0 3.125 0.515625 5.0l-3.984375 0l-0.53125 -3.0q-0.3125 0.625 -0.515625 0.96875q-0.1875 0.34375 -0.5625 0.859375q-0.375 0.5 -0.75 0.78125q-0.375 0.265625 -0.9375 0.46875q-0.5625 0.203125 -1.234375 0.203125zm11.4375 -0.28125l0 -20.0l4.0 0l0 2.15625q0.890625 -0.8125 1.453125 -1.234375q0.5625 -0.4375 1.546875 -0.8125q1.0 -0.390625 2.125 -0.390625q1.28125 0 2.078125 0.9375q0.796875 0.9375 0.796875 2.296875l0 17.046875l-4.0 0l0 -15.0q0 -1.046875 -0.296875 -1.515625q-0.296875 -0.484375 -1.203125 -0.484375q-0.515625 0 -1.03125 0.21875q-0.5 0.203125 -0.75 0.390625q-0.25 0.171875 -0.71875 0.5625l0 15.828125l-4.0 0zm21.171875 -3.0q1.453125 0 3.0 -0.625l0 -12.578125q-1.34375 -0.796875 -3.0 -0.796875q-0.59375 0 -1.0 0.296875q-0.40625 0.28125 -0.609375 0.84375q-0.203125 0.546875 -0.296875 1.140625q-0.09375 0.578125 -0.109375 1.375q-0.0625 3.5 0 5.546875q0.015625 1.0 0.109375 1.78125q0.09375 0.78125 0.296875 1.515625q0.21875 0.71875 0.625 1.109375q0.40625 0.390625 0.984375 0.390625zm-1.0 3.28125q-1.328125 0 -2.328125 -0.75q-0.984375 -0.75 -1.53125 -2.03125q-0.53125 -1.28125 -0.796875 -2.65625q-0.265625 -1.390625 -0.328125 -2.984375q-0.03125 -0.734375 0 -3.59375q0.03125 -1.03125 0.09375 -1.859375q0.0625 -0.84375 0.203125 -1.75q0.15625 -0.90625 0.375 -1.59375q0.234375 -0.703125 0.609375 -1.34375q0.375 -0.65625 0.875 -1.078125q0.5 -0.421875 1.203125 -0.671875q0.703125 -0.25 1.5625 -0.25q0.671875 0 1.25 0.1875q0.59375 0.171875 1.125 0.5625q0.53125 0.375 0.84375 0.671875q0.328125 0.296875 0.84375 0.84375l0 -9.96875l4.0 0l0 27.984375l-4.0 0l0 -1.8125q-0.90625 0.9375 -1.84375 1.515625q-0.9375 0.578125 -2.15625 0.578125zm16.984375 0q-2.46875 0 -3.96875 -1.46875q-1.484375 -1.46875 -2.03125 -3.8125l3.0 -1.0q1.078125 3.0 3.0 3.0q0.953125 0 1.46875 -0.515625q0.53125 -0.53125 0.53125 -1.484375q0 -1.390625 -1.0 -2.3125l-4.0 -3.0q-0.671875 -0.453125 -1.125 -0.84375q-0.453125 -0.40625 -0.921875 -0.984375q-0.46875 -0.578125 -0.71875 -1.296875q-0.234375 -0.71875 -0.234375 -1.5625q0 -2.5625 1.625 -3.921875q1.640625 -1.359375 4.375 -1.359375q1.296875 0 2.34375 0.421875q1.046875 0.40625 1.75 1.15625q0.71875 0.75 1.171875 1.671875q0.46875 0.90625 0.734375 2.03125l-3.0 1.0q-0.21875 -0.59375 -0.4375 -1.015625q-0.21875 -0.4375 -0.59375 -0.9375q-0.359375 -0.5 -0.859375 -0.765625q-0.5 -0.28125 -1.109375 -0.28125q-0.953125 0 -1.484375 0.53125q-0.515625 0.515625 -0.515625 1.46875q0 0.9375 1.0 1.6875l4.0 3.0q0.671875 0.53125 1.140625 1.03125q0.484375 0.484375 0.9375 1.140625q0.453125 0.640625 0.6875 1.4375q0.234375 0.796875 0.234375 1.703125q0 2.5625 -1.640625 3.921875q-1.625 1.359375 -4.359375 1.359375z" fill-rule="nonzero"></path><path fill="#efefef" d="m520.073 80.61444q-1.390625 1.875 -4.609375 1.875q-3.21875 0 -4.609375 -1.875q-1.390625 -1.875 -1.390625 -5.40625l0 -6.0q0 -3.53125 1.390625 -5.40625q1.390625 -1.875 4.609375 -1.875q3.21875 0 4.609375 1.875q1.390625 1.875 1.390625 5.40625l0 6.0q0 3.53125 -1.390625 5.40625zm-5.359375 -1.53125q0.328125 0.125 0.75 0.125q0.421875 0 0.734375 -0.125q0.328125 -0.125 0.53125 -0.296875q0.21875 -0.1875 0.359375 -0.53125q0.140625 -0.359375 0.21875 -0.625q0.078125 -0.265625 0.109375 -0.765625q0.03125 -0.5 0.03125 -0.78125q0.015625 -0.296875 0.015625 -0.875l0 -6.0q0 -0.578125 -0.015625 -0.859375q0 -0.296875 -0.03125 -0.796875q-0.03125 -0.5 -0.109375 -0.765625q-0.078125 -0.265625 -0.21875 -0.609375q-0.140625 -0.359375 -0.359375 -0.53125q-0.203125 -0.1875 -0.53125 -0.3125q-0.3125 -0.125 -0.734375 -0.125q-0.421875 0 -0.75 0.125q-0.3125 0.125 -0.53125 0.3125q-0.203125 0.171875 -0.34375 0.53125q-0.140625 0.34375 -0.21875 0.609375q-0.078125 0.265625 -0.109375 0.765625q-0.03125 0.5 -0.046875 0.796875q0 0.28125 0 0.859375l0 6.0q0 0.578125 0 0.875q0.015625 0.28125 0.046875 0.78125q0.03125 0.5 0.109375 0.765625q0.078125 0.265625 0.21875 0.625q0.140625 0.34375 0.34375 0.53125q0.21875 0.171875 0.53125 0.296875zm11.078125 3.125l0 -17.0l-2.0 0l0 -3.0l2.0 0l0 -0.765625q0 -1.265625 0.09375 -2.140625q0.09375 -0.890625 0.375 -1.703125q0.296875 -0.828125 0.78125 -1.3125q0.5 -0.5 1.3125 -0.78125q0.828125 -0.296875 1.96875 -0.296875q0.96875 0 2.46875 0.1875l0 2.96875q-0.15625 -0.015625 -0.640625 -0.078125q-0.484375 -0.078125 -0.703125 -0.078125q-1.0 0 -1.328125 0.640625q-0.328125 0.625 -0.328125 1.859375l0 1.5l3.0 0l0 3.0l-3.0 0l0 17.0l-4.0 0zm15.53125 0l0 -28.0l11.0 0l0 3.0l-7.0 0l0 9.0l5.0 0l0 3.0l-5.0 0l0 13.0l-4.0 0zm18.3125 0.28125q-1.453125 0 -2.53125 -0.5q-1.0625 -0.5 -1.703125 -1.296875q-0.625 -0.8125 -1.015625 -2.0625q-0.390625 -1.265625 -0.546875 -2.515625q-0.140625 -1.265625 -0.171875 -2.9375q-0.046875 -1.3125 0 -2.625q0.046875 -1.5625 0.203125 -2.765625q0.171875 -1.21875 0.578125 -2.359375q0.40625 -1.140625 1.046875 -1.875q0.65625 -0.734375 1.703125 -1.171875q1.0625 -0.453125 2.46875 -0.453125q1.28125 0 2.25 0.34375q0.984375 0.328125 1.625 1.015625q0.65625 0.671875 1.078125 1.5q0.4375 0.828125 0.65625 2.015625q0.21875 1.171875 0.296875 2.3125q0.09375 1.140625 0.09375 2.625l0 0.46875l-8.0 0l0 1.0q0 0.203125 0 0.640625q-0.03125 0.578125 -0.015625 1.203125q0.03125 0.609375 0.0625 1.203125q0.03125 0.59375 0.171875 1.140625q0.140625 0.53125 0.34375 0.9375q0.203125 0.40625 0.5625 0.640625q0.375 0.234375 0.875 0.234375q0.625 0 1.03125 -0.234375q0.40625 -0.25 0.59375 -0.734375q0.203125 -0.484375 0.28125 -0.96875q0.078125 -0.484375 0.09375 -1.21875l0 -0.84375l3.96875 0l0 0.796875q-0.140625 3.203125 -1.578125 4.84375q-1.4375 1.640625 -4.421875 1.640625zm-1.96875 -12.28125l3.96875 0l0 -1.203125q-0.015625 -0.796875 -0.09375 -1.390625q-0.078125 -0.59375 -0.28125 -1.1875q-0.1875 -0.59375 -0.59375 -0.90625q-0.40625 -0.3125 -1.0 -0.3125q-0.609375 0 -1.03125 0.328125q-0.40625 0.328125 -0.609375 0.953125q-0.1875 0.609375 -0.265625 1.203125q-0.078125 0.59375 -0.09375 1.421875l0 1.09375zm16.375 9.0q0.421875 0 0.8125 -0.25q0.40625 -0.25 0.609375 -0.484375q0.203125 -0.234375 0.5 -0.625q0.046875 -0.078125 0.078125 -0.109375l0 -5.53125q-0.25 0.171875 -0.828125 0.53125q-0.578125 0.359375 -0.921875 0.59375q-0.34375 0.21875 -0.828125 0.625q-0.484375 0.390625 -0.75 0.765625q-0.265625 0.359375 -0.46875 0.890625q-0.203125 0.53125 -0.203125 1.109375q0 2.484375 2.0 2.484375zm-2.0 3.28125q-1.671875 0 -2.84375 -1.4375q-1.15625 -1.453125 -1.15625 -3.265625q0 -1.453125 0.484375 -2.640625q0.5 -1.1875 1.046875 -1.890625q0.546875 -0.71875 1.828125 -1.46875q1.28125 -0.765625 1.9375 -1.046875q0.65625 -0.28125 2.28125 -0.921875q0.28125 -0.109375 0.421875 -0.171875l0 -1.4375q0 -1.515625 -0.421875 -2.34375q-0.421875 -0.84375 -1.578125 -0.84375q-1.03125 0 -1.484375 0.71875q-0.4375 0.703125 -0.5 1.953125q-0.015625 0.171875 -0.015625 0.515625l-4.0 0q0.03125 -2.875 1.609375 -4.578125q1.578125 -1.703125 4.390625 -1.703125q2.796875 0 4.390625 1.734375q1.609375 1.71875 1.609375 4.546875l0 9.0q0 3.125 0.515625 5.0l-3.984375 0l-0.53125 -3.0q-0.3125 0.625 -0.515625 0.96875q-0.1875 0.34375 -0.5625 0.859375q-0.375 0.5 -0.75 0.78125q-0.375 0.265625 -0.9375 0.46875q-0.5625 0.203125 -1.234375 0.203125zm16.984375 0q-2.359375 0 -3.4375 -1.203125q-1.0625 -1.203125 -1.09375 -3.640625l0 -12.4375l-2.0 0l0 -3.0l2.0 0l0 -7.0l4.0 0l0 7.0l3.0 0l0 3.0l-3.0 0l0 11.671875q0 1.203125 0.328125 1.765625q0.328125 0.5625 1.328125 0.5625q0.4375 0 1.34375 -0.15625l0 3.25q-1.5 0.1875 -2.46875 0.1875zm8.25 0q-1.3125 0 -2.109375 -0.921875q-0.796875 -0.9375 -0.796875 -2.3125l0 -17.046875l4.0 0l0 15.828125q0 0.625 0.375 1.015625q0.390625 0.390625 1.0 0.390625q0.328125 0 0.640625 -0.078125q0.3125 -0.078125 0.609375 -0.265625q0.3125 -0.203125 0.484375 -0.3125q0.171875 -0.125 0.484375 -0.40625q0.328125 -0.28125 0.40625 -0.34375l0 -15.828125l4.0 0l0 20.0l-4.0 0l0 -2.15625q-0.59375 0.515625 -0.875 0.75q-0.265625 0.234375 -0.828125 0.640625q-0.5625 0.390625 -1.0 0.578125q-0.421875 0.171875 -1.0625 0.3125q-0.640625 0.15625 -1.328125 0.15625zm12.5625 -0.28125l0 -20.0l4.0 0l0 2.671875q0.609375 -1.1875 1.765625 -2.0625q1.171875 -0.890625 2.59375 -0.890625q0.046875 0 0.640625 0.0625l0 4.421875q-1.109375 -0.4375 -2.21875 -0.4375q-1.25 0 -2.015625 0.75q-0.765625 0.75 -0.765625 1.984375l0 13.5l-4.0 0zm16.484375 0.28125q-1.453125 0 -2.53125 -0.5q-1.0625 -0.5 -1.703125 -1.296875q-0.625 -0.8125 -1.015625 -2.0625q-0.390625 -1.265625 -0.546875 -2.515625q-0.140625 -1.265625 -0.171875 -2.9375q-0.046875 -1.3125 0 -2.625q0.046875 -1.5625 0.203125 -2.765625q0.171875 -1.21875 0.578125 -2.359375q0.40625 -1.140625 1.046875 -1.875q0.65625 -0.734375 1.703125 -1.171875q1.0625 -0.453125 2.46875 -0.453125q1.28125 0 2.25 0.34375q0.984375 0.328125 1.625 1.015625q0.65625 0.671875 1.078125 1.5q0.4375 0.828125 0.65625 2.015625q0.21875 1.171875 0.296875 2.3125q0.09375 1.140625 0.09375 2.625l0 0.46875l-8.0 0l0 1.0q0 0.203125 0 0.640625q-0.03125 0.578125 -0.015625 1.203125q0.03125 0.609375 0.0625 1.203125q0.03125 0.59375 0.171875 1.140625q0.140625 0.53125 0.34375 0.9375q0.203125 0.40625 0.5625 0.640625q0.375 0.234375 0.875 0.234375q0.625 0 1.03125 -0.234375q0.40625 -0.25 0.59375 -0.734375q0.203125 -0.484375 0.28125 -0.96875q0.078125 -0.484375 0.09375 -1.21875l0 -0.84375l3.96875 0l0 0.796875q-0.140625 3.203125 -1.578125 4.84375q-1.4375 1.640625 -4.421875 1.640625zm-1.96875 -12.28125l3.96875 0l0 -1.203125q-0.015625 -0.796875 -0.09375 -1.390625q-0.078125 -0.59375 -0.28125 -1.1875q-0.1875 -0.59375 -0.59375 -0.90625q-0.40625 -0.3125 -1.0 -0.3125q-0.609375 0 -1.03125 0.328125q-0.40625 0.328125 -0.609375 0.953125q-0.1875 0.609375 -0.265625 1.203125q-0.078125 0.59375 -0.09375 1.421875l0 1.09375zm16.140625 12.28125q-2.46875 0 -3.96875 -1.46875q-1.484375 -1.46875 -2.03125 -3.8125l3.0 -1.0q1.078125 3.0 3.0 3.0q0.953125 0 1.46875 -0.515625q0.53125 -0.53125 0.53125 -1.484375q0 -1.390625 -1.0 -2.3125l-4.0 -3.0q-0.671875 -0.453125 -1.125 -0.84375q-0.453125 -0.40625 -0.921875 -0.984375q-0.46875 -0.578125 -0.71875 -1.296875q-0.234375 -0.71875 -0.234375 -1.5625q0 -2.5625 1.625 -3.921875q1.640625 -1.359375 4.375 -1.359375q1.296875 0 2.34375 0.421875q1.046875 0.40625 1.75 1.15625q0.71875 0.75 1.171875 1.671875q0.46875 0.90625 0.734375 2.03125l-3.0 1.0q-0.21875 -0.59375 -0.4375 -1.015625q-0.21875 -0.4375 -0.59375 -0.9375q-0.359375 -0.5 -0.859375 -0.765625q-0.5 -0.28125 -1.109375 -0.28125q-0.953125 0 -1.484375 0.53125q-0.515625 0.515625 -0.515625 1.46875q0 0.9375 1.0 1.6875l4.0 3.0q0.671875 0.53125 1.140625 1.03125q0.484375 0.484375 0.9375 1.140625q0.453125 0.640625 0.6875 1.4375q0.234375 0.796875 0.234375 1.703125q0 2.5625 -1.640625 3.921875q-1.625 1.359375 -4.359375 1.359375z" fill-rule="nonzero"></path><path fill="#ffd966" d="m653.69293 98.18372l0 0c0 -42.078007 34.110962 -76.18897 76.188965 -76.18897l0 0c20.206543 0 39.58551 8.027029 53.87372 22.315235c14.288208 14.288204 22.315247 33.66717 22.315247 53.873737l0 0c0 42.07801 -34.110962 76.18897 -76.188965 76.18897l0 0c-42.078003 0 -76.188965 -34.110962 -76.188965 -76.18897z" fill-rule="nonzero"></path><path stroke="#000000" stroke-width="1.0" stroke-linejoin="round" stroke-linecap="butt" d="m653.69293 98.18372l0 0c0 -42.078007 34.110962 -76.18897 76.188965 -76.18897l0 0c20.206543 0 39.58551 8.027029 53.87372 22.315235c14.288208 14.288204 22.315247 33.66717 22.315247 53.873737l0 0c0 42.07801 -34.110962 76.18897 -76.188965 76.18897l0 0c-42.078003 0 -76.188965 -34.110962 -76.188965 -76.18897z" fill-rule="nonzero"></path><path fill="#000000" d="m709.45026 92.223724l0 -21.0l4.65625 0q3.296875 0 4.640625 1.34375q1.359375 1.34375 1.359375 4.65625l0 8.25q0 3.453125 -1.375 5.109375q-1.375 1.640625 -4.65625 1.640625l-4.625 0zm3.0 -2.25l1.65625 0q0.734375 0 1.265625 -0.125q0.53125 -0.140625 0.859375 -0.5q0.328125 -0.359375 0.515625 -0.671875q0.1875 -0.328125 0.25 -1.0q0.078125 -0.6875 0.09375 -1.125q0.015625 -0.453125 0.015625 -1.375q0 -0.296875 0 -0.453125l0 -6.75q0 -0.578125 -0.015625 -0.90625q0 -0.34375 -0.03125 -0.8125q-0.03125 -0.46875 -0.09375 -0.734375q-0.046875 -0.265625 -0.15625 -0.59375q-0.109375 -0.34375 -0.265625 -0.53125q-0.15625 -0.1875 -0.390625 -0.390625q-0.21875 -0.203125 -0.515625 -0.296875q-0.296875 -0.109375 -0.703125 -0.171875q-0.390625 -0.0625 -0.890625 -0.0625l-1.59375 0l0 16.5zm14.261719 0q0.3125 0 0.609375 -0.1875q0.3125 -0.1875 0.453125 -0.359375q0.15625 -0.1875 0.375 -0.46875q0.046875 -0.0625 0.0625 -0.09375l0 -4.140625q-0.1875 0.125 -0.625 0.40625q-0.421875 0.265625 -0.6875 0.4375q-0.25 0.15625 -0.625 0.46875q-0.359375 0.296875 -0.5625 0.578125q-0.1875 0.265625 -0.34375 0.671875q-0.15625 0.390625 -0.15625 0.828125q0 1.859375 1.5 1.859375zm-1.5 2.46875q-1.25 0 -2.125 -1.078125q-0.875 -1.09375 -0.875 -2.453125q0 -1.09375 0.359375 -1.984375q0.375 -0.890625 0.78125 -1.421875q0.421875 -0.53125 1.375 -1.09375q0.96875 -0.578125 1.453125 -0.78125q0.5 -0.21875 1.71875 -0.703125q0.203125 -0.078125 0.3125 -0.125l0 -1.078125q0 -1.140625 -0.3125 -1.765625q-0.3125 -0.625 -1.1875 -0.625q-0.765625 0 -1.109375 0.53125q-0.328125 0.53125 -0.375 1.46875q-0.015625 0.125 -0.015625 0.390625l-3.0 0q0.03125 -2.15625 1.203125 -3.4375q1.1875 -1.28125 3.296875 -1.28125q2.09375 0 3.296875 1.296875q1.203125 1.296875 1.203125 3.421875l0 6.75q0 2.34375 0.390625 3.75l-2.984375 0l-0.40625 -2.25q-0.234375 0.46875 -0.390625 0.734375q-0.140625 0.25 -0.421875 0.640625q-0.28125 0.375 -0.5625 0.578125q-0.28125 0.203125 -0.703125 0.359375q-0.421875 0.15625 -0.921875 0.15625zm12.738281 0q-1.765625 0 -2.578125 -0.90625q-0.796875 -0.90625 -0.8125 -2.734375l0 -9.328125l-1.5 0l0 -2.25l1.5 0l0 -5.25l3.0 0l0 5.25l2.25 0l0 2.25l-2.25 0l0 8.75q0 0.90625 0.234375 1.328125q0.25 0.421875 1.0 0.421875q0.328125 0 1.015625 -0.125l0 2.453125q-1.125 0.140625 -1.859375 0.140625zm8.15625 -2.46875q0.3125 0 0.609375 -0.1875q0.3125 -0.1875 0.453125 -0.359375q0.15625 -0.1875 0.375 -0.46875q0.046875 -0.0625 0.0625 -0.09375l0 -4.140625q-0.1875 0.125 -0.625 0.40625q-0.421875 0.265625 -0.6875 0.4375q-0.25 0.15625 -0.625 0.46875q-0.359375 0.296875 -0.5625 0.578125q-0.1875 0.265625 -0.34375 0.671875q-0.15625 0.390625 -0.15625 0.828125q0 1.859375 1.5 1.859375zm-1.5 2.46875q-1.25 0 -2.125 -1.078125q-0.875 -1.09375 -0.875 -2.453125q0 -1.09375 0.359375 -1.984375q0.375 -0.890625 0.78125 -1.421875q0.421875 -0.53125 1.375 -1.09375q0.96875 -0.578125 1.453125 -0.78125q0.5 -0.21875 1.71875 -0.703125q0.203125 -0.078125 0.3125 -0.125l0 -1.078125q0 -1.140625 -0.3125 -1.765625q-0.3125 -0.625 -1.1875 -0.625q-0.765625 0 -1.109375 0.53125q-0.328125 0.53125 -0.375 1.46875q-0.015625 0.125 -0.015625 0.390625l-3.0 0q0.03125 -2.15625 1.203125 -3.4375q1.1875 -1.28125 3.296875 -1.28125q2.09375 0 3.296875 1.296875q1.203125 1.296875 1.203125 3.421875l0 6.75q0 2.34375 0.390625 3.75l-2.984375 0l-0.40625 -2.25q-0.234375 0.46875 -0.390625 0.734375q-0.140625 0.25 -0.421875 0.640625q-0.28125 0.375 -0.5625 0.578125q-0.28125 0.203125 -0.703125 0.359375q-0.421875 0.15625 -0.921875 0.15625z" fill-rule="nonzero"></path><path fill="#000000" d="m704.4366 121.442474q-2.828125 0 -4.328125 -1.671875q-1.484375 -1.671875 -1.671875 -4.546875l3.0 -0.75q0.234375 4.5 3.0 4.5q2.25 0 2.25 -2.25q0 -0.671875 -0.1875 -1.234375q-0.171875 -0.578125 -0.546875 -1.046875q-0.375 -0.46875 -0.6875 -0.75q-0.296875 -0.296875 -0.828125 -0.71875l-3.75 -3.0q-1.03125 -0.8125 -1.640625 -2.0625q-0.609375 -1.25 -0.609375 -2.84375q0 -2.3125 1.4375 -3.6875q1.4375 -1.375 3.8125 -1.375q2.5625 0 4.0625 1.25q1.515625 1.25 1.859375 3.53125q0.03125 0.25 0.078125 0.6875l-3.0 0.75q0 -0.203125 -0.046875 -0.59375q-0.203125 -1.4375 -0.90625 -2.296875q-0.6875 -0.859375 -2.046875 -0.859375q-1.078125 0 -1.671875 0.609375q-0.578125 0.59375 -0.578125 1.671875q0 1.765625 1.5 2.96875l3.75 3.0q3.0 2.421875 3.0 5.796875q0 2.3125 -1.421875 3.625q-1.421875 1.296875 -3.828125 1.296875zm14.9921875 -1.40625q-1.046875 1.40625 -3.46875 1.40625q-2.40625 0 -3.453125 -1.40625q-1.03125 -1.421875 -1.03125 -4.0625l0 -4.5q0 -2.65625 1.03125 -4.0625q1.046875 -1.40625 3.453125 -1.40625q2.421875 0 3.46875 1.40625q1.046875 1.40625 1.046875 4.0625l0 4.5q0 2.640625 -1.046875 4.0625zm-4.015625 -1.15625q0.25 0.09375 0.5625 0.09375q0.3125 0 0.546875 -0.09375q0.25 -0.09375 0.40625 -0.21875q0.15625 -0.140625 0.265625 -0.40625q0.109375 -0.265625 0.15625 -0.46875q0.0625 -0.203125 0.078125 -0.578125q0.03125 -0.375 0.03125 -0.578125q0.015625 -0.21875 0.015625 -0.65625l0 -4.5q0 -0.4375 -0.015625 -0.65625q0 -0.21875 -0.03125 -0.59375q-0.015625 -0.375 -0.078125 -0.5625q-0.046875 -0.203125 -0.15625 -0.46875q-0.109375 -0.265625 -0.265625 -0.390625q-0.15625 -0.140625 -0.40625 -0.234375q-0.234375 -0.09375 -0.546875 -0.09375q-0.3125 0 -0.5625 0.09375q-0.234375 0.09375 -0.390625 0.234375q-0.15625 0.125 -0.265625 0.390625q-0.109375 0.265625 -0.171875 0.46875q-0.046875 0.1875 -0.078125 0.5625q-0.015625 0.375 -0.03125 0.59375q0 0.21875 0 0.65625l0 4.5q0 0.4375 0 0.65625q0.015625 0.203125 0.03125 0.578125q0.03125 0.375 0.078125 0.578125q0.0625 0.203125 0.171875 0.46875q0.109375 0.265625 0.265625 0.40625q0.15625 0.125 0.390625 0.21875zm9.6640625 2.5625q-0.984375 0 -1.578125 -0.703125q-0.59375 -0.703125 -0.59375 -1.734375l0 -12.78125l3.0 0l0 11.875q0 0.46875 0.28125 0.765625q0.28125 0.28125 0.75 0.28125q0.234375 0 0.46875 -0.046875q0.234375 -0.0625 0.46875 -0.203125q0.234375 -0.15625 0.359375 -0.234375q0.125 -0.09375 0.359375 -0.296875q0.25 -0.21875 0.3125 -0.265625l0 -11.875l3.0 0l0 15.0l-3.0 0l0 -1.625q-0.453125 0.390625 -0.65625 0.578125q-0.203125 0.171875 -0.625 0.46875q-0.421875 0.296875 -0.75 0.4375q-0.3125 0.125 -0.796875 0.234375q-0.484375 0.125 -1.0 0.125zm9.425781 -0.21875l0 -15.0l3.0 0l0 2.0q0.453125 -0.890625 1.328125 -1.546875q0.875 -0.671875 1.9375 -0.671875q0.03125 0 0.484375 0.046875l0 3.328125q-0.828125 -0.328125 -1.671875 -0.328125q-0.9375 0 -1.515625 0.5625q-0.5625 0.5625 -0.5625 1.484375l0 10.125l-3.0 0zm11.871094 0.21875q-1.09375 0 -1.90625 -0.359375q-0.796875 -0.375 -1.28125 -0.953125q-0.46875 -0.59375 -0.765625 -1.5q-0.296875 -0.90625 -0.40625 -1.8125q-0.109375 -0.921875 -0.140625 -2.125q-0.03125 -0.96875 0 -1.953125q0.03125 -1.203125 0.140625 -2.109375q0.109375 -0.921875 0.40625 -1.828125q0.296875 -0.90625 0.765625 -1.484375q0.484375 -0.578125 1.28125 -0.9375q0.8125 -0.375 1.90625 -0.375q2.359375 0 3.390625 1.28125q1.03125 1.28125 1.109375 3.78125l0 0.40625l-3.0 0l0 -0.421875q-0.015625 -0.5625 -0.078125 -0.984375q-0.0625 -0.421875 -0.21875 -0.84375q-0.140625 -0.421875 -0.453125 -0.640625q-0.3125 -0.234375 -0.765625 -0.234375q-0.4375 0 -0.75 0.265625q-0.296875 0.25 -0.453125 0.75q-0.15625 0.484375 -0.234375 1.015625q-0.0625 0.515625 -0.078125 1.203125q-0.046875 1.453125 0 4.375q0.03125 0.640625 0.09375 1.140625q0.078125 0.484375 0.234375 0.9375q0.15625 0.4375 0.453125 0.6875q0.3125 0.25 0.75 0.25q0.390625 0 0.671875 -0.15625q0.296875 -0.15625 0.4375 -0.375q0.15625 -0.21875 0.25 -0.59375q0.09375 -0.375 0.109375 -0.6875q0.03125 -0.328125 0.03125 -0.828125l0 -0.359375l3.0 0l0 0.390625q-0.046875 1.171875 -0.3125 2.09375q-0.25 0.90625 -0.765625 1.59375q-0.515625 0.671875 -1.390625 1.03125q-0.859375 0.359375 -2.03125 0.359375zm10.597656 0q-1.09375 0 -1.890625 -0.375q-0.796875 -0.390625 -1.28125 -0.984375q-0.46875 -0.609375 -0.765625 -1.546875q-0.296875 -0.953125 -0.40625 -1.890625q-0.109375 -0.9375 -0.125 -2.203125q-0.046875 -0.984375 0 -1.96875q0.03125 -1.171875 0.15625 -2.078125q0.125 -0.90625 0.421875 -1.75q0.3125 -0.859375 0.796875 -1.40625q0.484375 -0.5625 1.265625 -0.890625q0.796875 -0.34375 1.859375 -0.34375q0.953125 0 1.6875 0.265625q0.734375 0.25 1.21875 0.765625q0.484375 0.5 0.796875 1.125q0.328125 0.609375 0.484375 1.5q0.171875 0.890625 0.234375 1.75q0.078125 0.84375 0.078125 1.953125l0 0.359375l-6.0 0l0 0.75q0 0.15625 0 0.484375q-0.03125 0.421875 -0.015625 0.890625q0.015625 0.46875 0.03125 0.921875q0.03125 0.4375 0.140625 0.84375q0.109375 0.390625 0.25 0.703125q0.15625 0.296875 0.4375 0.484375q0.28125 0.171875 0.65625 0.171875q0.46875 0 0.765625 -0.171875q0.3125 -0.1875 0.453125 -0.546875q0.140625 -0.375 0.203125 -0.734375q0.0625 -0.359375 0.078125 -0.921875l0 -0.625l2.96875 0l0 0.59375q-0.109375 2.40625 -1.1875 3.640625q-1.078125 1.234375 -3.3125 1.234375zm-1.46875 -9.21875l2.96875 0l0 -0.90625q-0.015625 -0.59375 -0.078125 -1.03125q-0.046875 -0.453125 -0.203125 -0.890625q-0.140625 -0.453125 -0.453125 -0.6875q-0.296875 -0.234375 -0.734375 -0.234375q-0.46875 0 -0.78125 0.25q-0.296875 0.234375 -0.453125 0.703125q-0.140625 0.46875 -0.203125 0.921875q-0.0625 0.4375 -0.0625 1.046875l0 0.828125z" fill-rule="nonzero"></path></g></svg>

