<?xml version="1.0" standalone="yes"?>

<svg version="1.1" viewBox="0.0 0.0 333.71128608923885 355.1706036745407" fill="none" stroke="none" stroke-linecap="square" stroke-miterlimit="10" xmlns="http://www.w3.org/2000/svg" xmlns:xlink="http://www.w3.org/1999/xlink"><clipPath id="p.0"><path d="m0 0l333.71127 0l0 355.1706l-333.71127 0l0 -355.1706z" clip-rule="nonzero"></path></clipPath><g clip-path="url(#p.0)"><path fill="#000000" fill-opacity="0.0" d="m0 0l333.71127 0l0 355.1706l-333.71127 0z" fill-rule="nonzero"></path><path fill="#ff9900" d="m9.6587925 85.57481l221.31496 0l0 221.31497l-221.31496 0z" fill-rule="nonzero"></path><path fill="#cb7a00" d="m230.97375 85.57481l73.77164 -73.77166l0 221.31496l-73.77164 73.77167z" fill-rule="nonzero"></path><path fill="#ffad33" d="m9.6587925 85.57481l73.77165 -73.77166l221.31494 0l-73.77164 73.77166z" fill-rule="nonzero"></path><path fill="#000000" fill-opacity="0.0" d="m9.6587925 85.57481l73.77165 -73.77166l221.31494 0l0 221.31496l-73.77164 73.77167l-221.31496 0zm0 0l221.31496 0l73.77164 -73.77166m-73.77164 73.77166l0 221.31497" fill-rule="nonzero"></path><path stroke="#ffffff" stroke-width="1.0" stroke-linejoin="round" stroke-linecap="butt" d="m9.6587925 85.57481l73.77165 -73.77166l221.31494 0l0 221.31496l-73.77164 73.77167l-221.31496 0zm0 0l221.31496 0l73.77164 -73.77166m-73.77164 73.77166l0 221.31497" fill-rule="nonzero"></path></g></svg>

